<svg width="16" height="16" viewBox="0 0 16 16" fill="none" xmlns="http://www.w3.org/2000/svg">
<g id="Frame">
<path id="Vector" d="M13.9454 13.7375H2.05474C1.76724 13.7375 1.53442 13.5047 1.53442 13.2172V10.6172C1.53442 10.3297 1.76724 10.0969 2.05474 10.0969H2.52349C2.81099 10.0969 3.0438 10.3297 3.0438 10.6172C3.0438 10.6875 3.02974 10.7562 3.00317 10.8172L2.80005 11.8297C2.80005 12.1172 3.03286 12.35 3.32036 12.35H12.6797C12.9672 12.35 13.2 12.1172 13.2 11.8297L12.9969 10.8172C12.9704 10.7562 12.9563 10.6875 12.9563 10.6172C12.9563 10.3297 13.1891 10.0969 13.4766 10.0969H13.9454C14.2329 10.0969 14.4657 10.3297 14.4657 10.6172V13.2172C14.4657 13.5047 14.2329 13.7375 13.9454 13.7375ZM12.9047 5.92031V5.92969C12.9454 5.94688 12.9735 5.9875 12.9735 6.03438C12.9735 6.08125 12.9454 6.12187 12.9047 6.13906V6.14531L8.13599 11.0328H8.12974C8.11255 11.0734 8.07192 11.1016 8.02505 11.1016C7.97817 11.1016 7.93755 11.0734 7.92036 11.0328H7.91411L3.14692 6.14375V6.1375C3.1063 6.12031 3.07817 6.07969 3.07817 6.03281C3.07817 5.98594 3.1063 5.94531 3.14692 5.92812V5.91875H2.92974H6.16411V5.12187C6.16411 4.83437 6.39692 4.60156 6.68442 4.60156H9.3188C9.6063 4.60156 9.83911 4.83437 9.83911 5.12187V5.91875H13.125H12.9047V5.92031ZM9.40474 4.11719H6.59536C6.3563 4.11719 6.16255 3.92344 6.16255 3.68438C6.16255 3.44531 6.3563 3.25156 6.59536 3.25156H9.40317C9.64224 3.25156 9.83599 3.44531 9.83599 3.68438C9.83599 3.92344 9.6438 4.11719 9.40474 4.11719ZM9.57661 2.8H6.42349C6.27974 2.8 6.16411 2.68281 6.16411 2.54063C6.16411 2.39688 6.2813 2.28125 6.42349 2.28125H9.57817C9.72192 2.28125 9.83755 2.39844 9.83755 2.54063C9.83755 2.68438 9.72036 2.8 9.57661 2.8Z" fill="#3889CD"/>
</g>
</svg>
