<svg width="16" height="17" viewBox="0 0 16 17" fill="none" xmlns="http://www.w3.org/2000/svg">
<g id="Frame">
<path id="Vector" d="M13.7833 4.14347C13.7111 4.22475 13.6433 4.297 13.5801 4.36022L13.4175 4.52278C13.3634 4.57697 13.3137 4.62213 13.2685 4.65825L11.4397 2.81589C11.512 2.74364 11.6023 2.65784 11.7107 2.5585C11.819 2.45915 11.9093 2.38239 11.9816 2.3282C12.1622 2.1837 12.3564 2.12048 12.5641 2.13855C12.7718 2.15661 12.9389 2.19725 13.0653 2.26047C13.2008 2.33272 13.3521 2.45915 13.5192 2.63978C13.6862 2.8204 13.8149 3.01006 13.9052 3.20874C13.9504 3.33518 13.9797 3.4842 13.9933 3.65579C14.0068 3.82738 13.9368 3.98994 13.7833 4.14347ZM8.60844 5.64717L10.7082 3.54741L12.537 5.37623C11.7694 6.14388 11.0694 6.83929 10.4373 7.46244C10.1663 7.72434 9.90215 7.98399 9.64477 8.24138C9.38738 8.49877 9.15257 8.72906 8.94033 8.93227C8.7281 9.13547 8.55425 9.3048 8.41878 9.44027L8.17494 9.68411C8.11172 9.74733 8.03947 9.81055 7.95819 9.87377C7.87691 9.93699 7.7866 9.99117 7.68725 10.0363C7.58791 10.0815 7.45018 10.1357 7.27408 10.1989C7.09797 10.2621 6.91509 10.3231 6.72543 10.3818C6.53578 10.4405 6.35515 10.4947 6.18356 10.5443C6.01197 10.594 5.88101 10.6234 5.7907 10.6324C5.61911 10.6505 5.52654 10.6346 5.51299 10.585C5.49945 10.5353 5.50622 10.4247 5.53331 10.2531C5.54234 10.1628 5.56492 10.0296 5.60105 9.85345C5.63717 9.67734 5.6733 9.49897 5.70942 9.31835C5.74555 9.13773 5.78393 8.96839 5.82457 8.81034C5.86521 8.6523 5.89908 8.54167 5.92617 8.47845C5.97133 8.37911 6.01874 8.29331 6.06841 8.22106C6.11808 8.14881 6.18807 8.06753 6.27839 7.97722L8.60844 5.64717ZM13.2008 7.61145C13.3905 7.61145 13.5711 7.65661 13.7427 7.74692C13.9143 7.83723 14.0001 8.02237 14.0001 8.30234V11.3775C14.0001 11.6303 13.9526 11.8629 13.8578 12.0751C13.763 12.2874 13.6343 12.4725 13.4717 12.6305C13.3092 12.7886 13.124 12.9105 12.9163 12.9963C12.7086 13.0821 12.4964 13.125 12.2796 13.125H4.7205C4.50376 13.125 4.29152 13.0776 4.0838 12.9828C3.87609 12.8879 3.69321 12.7592 3.53516 12.5967C3.37711 12.4341 3.24842 12.2422 3.14908 12.0209C3.04973 11.7997 3.00006 11.5626 3.00006 11.3097V3.76416C3.00006 3.58354 3.04973 3.39614 3.14908 3.20197C3.24842 3.0078 3.37711 2.83169 3.53516 2.67365C3.69321 2.5156 3.87157 2.38465 4.07026 2.28079C4.26894 2.17693 4.46763 2.125 4.66632 2.125H7.82272C8.0756 2.125 8.25396 2.21757 8.35782 2.40271C8.46168 2.58785 8.51361 2.77525 8.51361 2.9649C8.51361 3.15456 8.46168 3.33744 8.35782 3.51355C8.25396 3.68966 8.0756 3.77771 7.82272 3.77771H5.34366C5.154 3.77771 5.00047 3.84319 4.88307 3.97414C4.76566 4.10509 4.70696 4.26539 4.70696 4.45505V10.822C4.70696 11.0027 4.76566 11.1539 4.88307 11.2759C5.00047 11.3978 5.154 11.4587 5.34366 11.4587H11.6158C11.8055 11.4587 11.968 11.3978 12.1035 11.2759C12.239 11.1539 12.3067 11.0027 12.3067 10.822V8.30234C12.3067 8.1759 12.3361 8.06753 12.3948 7.97722C12.4535 7.8869 12.5257 7.81465 12.6115 7.76047C12.6973 7.70628 12.7921 7.6679 12.896 7.64532C12.9999 7.62274 13.1015 7.61145 13.2008 7.61145Z" fill="#3889CD"/>
</g>
</svg>
