<svg width="17" height="17" viewBox="0 0 17 17" fill="none" xmlns="http://www.w3.org/2000/svg">
<g id="Frame">
<path id="Vector" d="M9.82436 7.73615C10.3123 7.52919 10.8371 7.42288 11.3671 7.42358C11.4202 7.42358 11.4728 7.42597 11.5258 7.42597C11.7765 6.79144 11.8408 6.04223 11.7145 5.31345C11.4226 3.64236 9.84516 2.52517 8.18751 2.81952C6.53206 3.11386 5.13415 4.40114 5.42849 6.07205C5.49053 6.43285 5.66541 6.99614 5.87231 7.40296L2.86479 11.7403C2.75434 11.899 2.68992 12.1865 2.72452 12.3818L2.85541 13.124C2.73115 12.4092 2.88983 13.3816 2.98629 13.3792L3.9772 13.393C4.16791 13.3585 4.40721 13.1977 4.51287 13.0342L5.70149 11.1748L5.7129 11.1632L6.75204 11.2458L8.14057 9.06926C8.14517 9.06926 8.14995 9.07166 8.15437 9.07166C8.27892 8.90033 8.41646 8.73884 8.56579 8.58863C8.92515 8.22445 9.35284 7.93475 9.82436 7.73615ZM3.51552 12.1977L3.36844 12.2598L3.38464 12.0987L6.26551 7.91747L6.438 8.07854L3.51552 12.1977ZM7.89316 4.50441C8.34839 3.84927 9.24487 3.68599 9.8932 4.14822C10.2061 4.37127 10.4186 4.70849 10.4849 5.08699C10.5511 5.46549 10.4657 5.85485 10.2472 6.1709C9.79196 6.82605 9.32752 6.364 8.6768 5.90435C8.02883 5.44231 7.43793 5.16177 7.89316 4.50441Z" fill="#3889CD"/>
<path id="Vector_2" d="M11.4018 7.80566C9.46028 7.80566 7.88721 9.37833 7.88721 11.3196C7.88721 13.2607 9.46008 14.833 11.4018 14.833C13.3433 14.833 14.9164 13.2603 14.9164 11.3196C14.9164 9.37833 13.3431 7.80566 11.4018 7.80566Z" fill="#3889CD"/>
<path id="Vector_3" d="M13.5738 10.8952C13.5499 10.771 13.4739 10.6913 13.3813 10.6933H13.3619C13.0438 10.6933 12.785 10.4398 12.785 10.1282C12.785 10.0255 12.8349 9.9128 12.8353 9.91206C12.8588 9.85836 12.8628 9.79816 12.8468 9.74178C12.8308 9.6854 12.7957 9.63633 12.7475 9.60299L12.742 9.59931L12.1871 9.29742L12.1812 9.29484C12.1473 9.28068 12.1109 9.27348 12.0741 9.27367C11.9951 9.27367 11.9176 9.30459 11.8668 9.35614C11.7991 9.42462 11.5856 9.60225 11.4133 9.60225C11.2393 9.60225 11.0245 9.42093 10.9565 9.35117C10.9056 9.29852 10.8277 9.26704 10.7478 9.26704C10.7117 9.26669 10.6759 9.27364 10.6425 9.28747L10.6366 9.29005L10.0623 9.59894L10.0566 9.60281C10.0082 9.63596 9.97297 9.68491 9.95681 9.74124C9.94065 9.79758 9.94462 9.85778 9.96803 9.91151C9.96858 9.91262 10.0183 10.0253 10.0183 10.1278C10.0183 10.4396 9.75946 10.6929 9.44137 10.6929H9.42223C9.32945 10.6909 9.25361 10.7706 9.22968 10.8949C9.22784 10.9046 9.18329 11.1377 9.18329 11.3208C9.18329 11.504 9.22784 11.7369 9.22968 11.7468C9.25342 11.8696 9.32742 11.9487 9.41873 11.9487H9.44155C9.75965 11.9487 10.0185 12.2022 10.0185 12.5139C10.0185 12.6166 9.96858 12.7292 9.96821 12.73C9.94478 12.7837 9.94071 12.8439 9.95668 12.9003C9.97266 12.9567 10.0077 13.0058 10.0558 13.0392L10.0614 13.0429L10.6057 13.3409L10.6114 13.3433C10.6451 13.3577 10.6815 13.3649 10.7182 13.3647C10.7981 13.3647 10.8761 13.3325 10.9265 13.2787C10.9902 13.211 11.2122 13.017 11.3902 13.017C11.5692 13.017 11.7879 13.2099 11.8571 13.2842C11.897 13.3253 11.9483 13.3536 12.0043 13.3655C12.0603 13.3774 12.1187 13.3724 12.1719 13.3511L12.1777 13.3487L12.742 13.0433L12.7475 13.0394C12.8467 12.9717 12.8846 12.8388 12.8356 12.7307C12.8351 12.7296 12.7854 12.617 12.7854 12.5144C12.7854 12.2028 13.0442 11.9493 13.3623 11.9493H13.3816C13.4742 11.9513 13.5503 11.8716 13.5742 11.7474C13.576 11.7374 13.6206 11.5049 13.6206 11.3214C13.6204 11.1379 13.5757 10.905 13.5738 10.8952ZM11.3921 12.071C10.9685 12.071 10.6239 11.7334 10.6239 11.3184C10.6239 10.9035 10.9685 10.5659 11.3921 10.5659C11.8157 10.5659 12.1603 10.9035 12.1603 11.3184C12.1603 11.7334 11.8157 12.071 11.3921 12.071Z" fill="white"/>
</g>
</svg>
