<svg width="16" height="17" viewBox="0 0 16 17" fill="none" xmlns="http://www.w3.org/2000/svg">
<g id="Frame">
<path id="Vector" d="M3.00006 4.63438V3.68125C3.00006 3.39375 3.23287 3.1625 3.51881 3.1625H6.49694V2.64375C6.49694 2.35625 6.72975 2.125 7.01569 2.125H9.37037C9.65787 2.125 9.88912 2.35781 9.88912 2.64375V3.1625H12.8672C13.1547 3.1625 13.386 3.39531 13.386 3.68125V4.63438H3.00006ZM11.936 13.5703C11.936 13.8578 11.7032 14.0891 11.4172 14.0891H4.9735C4.686 14.0891 4.45475 13.8562 4.45475 13.5703L3.41569 4.99844H12.9751L11.936 13.5703ZM6.74069 6.97188C6.74069 6.68438 6.50787 6.45312 6.22194 6.45312C5.93444 6.45312 5.70319 6.68594 5.70319 6.97188V12.1672C5.70319 12.4547 5.936 12.6859 6.22194 12.6859C6.50944 12.6859 6.74069 12.4531 6.74069 12.1672V6.97188ZM8.67975 6.97188C8.67975 6.68438 8.44694 6.45312 8.161 6.45312C7.8735 6.45312 7.64225 6.68594 7.64225 6.97188V12.1672C7.64225 12.4547 7.87506 12.6859 8.161 12.6859C8.4485 12.6859 8.67975 12.4531 8.67975 12.1672V6.97188ZM10.6547 6.97188C10.6547 6.68438 10.4219 6.45312 10.136 6.45312C9.8485 6.45312 9.61725 6.68594 9.61725 6.97188V12.1672C9.61725 12.4547 9.85006 12.6859 10.136 12.6859C10.4235 12.6859 10.6547 12.4531 10.6547 12.1672V6.97188Z" fill="#3889CD"/>
</g>
</svg>
