<svg width="16" height="16" viewBox="0 0 16 16" fill="none" xmlns="http://www.w3.org/2000/svg">
<path d="M13.3687 6.02733L13.3681 6.02677L8.31936 1.32794C8.22854 1.2377 8.11701 1.18748 7.99999 1.18748C7.88282 1.18748 7.77114 1.23784 7.68025 1.32829L2.78115 5.97744L2.78113 5.97741L2.77928 5.97927L2.63026 6.12828L0.781268 7.87733L0.781241 7.8773L0.779277 7.87926C0.688208 7.97033 0.637488 8.08238 0.637488 8.19998C0.637488 8.31757 0.688208 8.42962 0.779277 8.52069C0.870346 8.61175 0.982396 8.66248 1.09999 8.66248C1.21726 8.66248 1.32903 8.61203 1.41997 8.52142L2.54999 7.43486V13.35C2.54999 14.1575 3.24704 14.85 4.09999 14.85H5.39999C6.04904 14.85 6.59999 14.3612 6.59999 13.7V10.4H9.49999V13.7C9.49999 14.3082 10.0478 14.85 10.7 14.85H12C12.8506 14.85 13.55 14.2097 13.55 13.35V7.37786L14.6308 8.37223C14.7216 8.46233 14.8331 8.51248 14.95 8.51248C15.0676 8.51248 15.1796 8.46176 15.2707 8.37069C15.4196 8.2218 15.3991 7.9577 15.2207 7.77926L15.15 7.84998L15.2187 7.77733L13.3687 6.02733ZM12.55 13.4C12.55 13.7447 12.2948 14 11.95 14H10.65C10.5052 14 10.4 13.8947 10.4 13.75V9.99998C10.4 9.74475 10.2052 9.54997 9.94999 9.54997H6.14999C5.89476 9.54997 5.69999 9.74475 5.69999 9.99998V13.75C5.69999 13.8947 5.59476 14 5.44999 14H4.14999C3.80522 14 3.54999 13.7447 3.54999 13.4V6.5927L8.04999 2.28836L12.55 6.5927V13.4Z" fill="#333333" stroke="#333333" stroke-width="0.2"/>
</svg>
