<svg width="14" height="13" viewBox="0 0 14 13" fill="none" xmlns="http://www.w3.org/2000/svg">
<g clip-path="url(#clip0_341_3849)">
<path fill-rule="evenodd" clip-rule="evenodd" d="M9 1V2H5V1H9ZM4 2V1C4 0.45 4.45 0 5 0H9C9.55 0 10 0.45 10 1V2H12H13.5C13.78 2 14 2.22 14 2.5C14 2.78 13.78 3 13.5 3H12V11C12 12.1 11.1 13 10 13H4C2.9 13 2 12.1 2 11V3H0.5C0.22 3 0 2.78 0 2.5C0 2.22 0.22 2 0.5 2H2H4ZM3 3V11C3 11.55 3.45 12 4 12H10C10.55 12 11 11.55 11 11V3H10H4H3ZM9 5H8V10H9V5ZM5 5H6V10H5V5Z" fill="#3674FA"/>
</g>
<defs>
<clipPath id="clip0_341_3849">
<rect width="14" height="13" fill="white"/>
</clipPath>
</defs>
</svg>
