<svg width="14" height="13" viewBox="0 0 14 13" fill="none" xmlns="http://www.w3.org/2000/svg">
<g clip-path="url(#clip0_30_9753)">
<path d="M13.5 2H0.5C0.22 2 0 2.22 0 2.5C0 2.78 0.22 3 0.5 3H13.5C13.78 3 14 2.78 14 2.5C14 2.22 13.78 2 13.5 2Z" fill="#102A49"/>
<path d="M9 1V2H5V1H9ZM9 0H5C4.45 0 4 0.45 4 1V3H10V1C10 0.45 9.55 0 9 0Z" fill="#102A49"/>
<mask id="path-3-inside-1_30_9753" fill="white">
<path d="M11 3V11C11 11.55 10.55 12 10 12H4C3.45 12 3 11.55 3 11V3H11ZM12 2H2V11C2 12.1 2.9 13 4 13H10C11.1 13 12 12.1 12 11V2Z"/>
</mask>
<path d="M11 3V11C11 11.55 10.55 12 10 12H4C3.45 12 3 11.55 3 11V3H11ZM12 2H2V11C2 12.1 2.9 13 4 13H10C11.1 13 12 12.1 12 11V2Z" fill="#3674FA"/>
<path d="M11 3H12V2H11V3ZM3 3V2H2V3H3ZM12 2H13V1H12V2ZM2 2V1H1V2H2ZM10 3V11H12V3H10ZM10 11V13C11.1023 13 12 12.1023 12 11H10ZM10 11H4V13H10V11ZM4 11H2C2 12.1023 2.89772 13 4 13V11ZM4 11V3H2V11H4ZM3 4H11V2H3V4ZM12 1H2V3H12V1ZM1 2V11H3V2H1ZM1 11C1 12.6523 2.34772 14 4 14V12C3.45228 12 3 11.5477 3 11H1ZM4 14H10V12H4V14ZM10 14C11.6523 14 13 12.6523 13 11H11C11 11.5477 10.5477 12 10 12V14ZM13 11V2H11V11H13Z" fill="#102A49" mask="url(#path-3-inside-1_30_9753)"/>
<path d="M9 5H8V10H9V5Z" fill="#102A49"/>
<path d="M6 5H5V10H6V5Z" fill="#102A49"/>
</g>
<defs>
<clipPath id="clip0_30_9753">
<rect width="14" height="13" fill="white"/>
</clipPath>
</defs>
</svg>
