<svg width="16" height="16" viewBox="0 0 16 16" fill="none" xmlns="http://www.w3.org/2000/svg">
<path d="M14.5 4H1.5C1.22 4 1 4.22 1 4.5C1 4.78 1.22 5 1.5 5H14.5C14.78 5 15 4.78 15 4.5C15 4.22 14.78 4 14.5 4Z" fill="#3674FA"/>
<path d="M10 3V4H6V3H10ZM10 2H6C5.45 2 5 2.45 5 3V5H11V3C11 2.45 10.55 2 10 2Z" fill="#3674FA"/>
<mask id="path-3-inside-1_30_9699" fill="white">
<path d="M12 5V13C12 13.55 11.55 14 11 14H5C4.45 14 4 13.55 4 13V5H12ZM13 4H3V13C3 14.1 3.9 15 5 15H11C12.1 15 13 14.1 13 13V4Z"/>
</mask>
<path d="M12 5V13C12 13.55 11.55 14 11 14H5C4.45 14 4 13.55 4 13V5H12ZM13 4H3V13C3 14.1 3.9 15 5 15H11C12.1 15 13 14.1 13 13V4Z" fill="#3674FA"/>
<path d="M12 5H13V4H12V5ZM4 5V4H3V5H4ZM13 4H14V3H13V4ZM3 4V3H2V4H3ZM11 5V13H13V5H11ZM11 13V15C12.1023 15 13 14.1023 13 13H11ZM11 13H5V15H11V13ZM5 13H3C3 14.1023 3.89772 15 5 15V13ZM5 13V5H3V13H5ZM4 6H12V4H4V6ZM13 3H3V5H13V3ZM2 4V13H4V4H2ZM2 13C2 14.6523 3.34772 16 5 16V14C4.45228 14 4 13.5477 4 13H2ZM5 16H11V14H5V16ZM11 16C12.6523 16 14 14.6523 14 13H12C12 13.5477 11.5477 14 11 14V16ZM14 13V4H12V13H14Z" fill="#3674FA" mask="url(#path-3-inside-1_30_9699)"/>
<path d="M10 7H9V12H10V7Z" fill="#3674FA"/>
<path d="M7 7H6V12H7V7Z" fill="#3674FA"/>
</svg>
