<svg width="16" height="16" viewBox="0 0 16 16" fill="none" xmlns="http://www.w3.org/2000/svg">
<path d="M7.97655 1C11.8141 1 14.9562 4.12187 14.9562 7.97969C14.9562 11.8172 11.8359 14.9578 7.97811 14.9578C4.1203 14.9578 0.999988 11.8375 0.999988 7.97969C0.998425 4.14219 4.11874 1 7.97655 1V1ZM4.07655 10.8953C4.07811 10.9937 4.15936 11.0734 4.25936 11.0734C4.34686 11.0734 4.4203 11.0125 4.43749 10.9281C4.44061 10.9172 4.55936 10.3781 5.06874 9.84844C5.71718 9.17344 6.72186 8.80312 7.98124 8.77031V10.2359C7.98124 10.3047 8.0203 10.3656 8.08124 10.3969C8.14218 10.4281 8.21561 10.4219 8.27186 10.3828L11.7687 7.875C11.7844 7.86406 11.7984 7.85 11.8094 7.83437C11.8672 7.75312 11.8484 7.64219 11.7687 7.58437L8.27186 5.06719C8.21561 5.02656 8.14218 5.02187 8.08124 5.05156C8.0203 5.08281 7.9828 5.14375 7.98124 5.2125V6.76875C7.61874 6.78281 7.2578 6.8375 6.9078 6.92969C6.1828 7.12031 5.57968 7.45156 5.11718 7.91719C4.40468 8.62969 4.05468 9.63281 4.07655 10.8953Z" fill="#3674FA"/>
</svg>
