<svg width="98" height="48" viewBox="0 0 98 48" fill="none" xmlns="http://www.w3.org/2000/svg">
<mask id="mask0_301_3833" style="mask-type:alpha" maskUnits="userSpaceOnUse" x="0" y="0" width="98" height="47">
<rect x="0.5" y="0.5" width="97" height="46" rx="3.5" fill="white" stroke="#3674FA"/>
</mask>
<g mask="url(#mask0_301_3833)">
<path d="M72.5742 -11L115.303 25.1973L106.636 35.428L63.9074 -0.769338L72.5742 -11Z" fill="#F9A11E"/>
</g>
<path d="M80.6419 7.90587L80.2023 8.42472L84.4142 11.9927L84.8537 11.4739L83.2666 10.1294L84.8309 8.28293L86.1585 9.40763L86.5851 8.90404L85.2575 7.77934L86.589 6.20753C87.216 6.58136 87.8218 6.8718 88.3913 7.06591L88.5121 6.38186C87.2815 5.91608 85.9349 5.07675 84.4928 3.85509L84.2406 4.49326C84.8433 5.0039 85.4338 5.4517 86.0044 5.8302L82.7402 9.68342L81.733 8.8302L84.0923 6.04519L83.5658 5.59919L81.2065 8.3842L80.6419 7.90587ZM82.0983 1.49896L81.6717 2.00255L83.1596 3.263C82.2351 3.58074 81.296 3.80745 80.3576 3.95607L80.0215 4.35283L81.4483 5.56157C80.7691 6.27054 80.0659 6.77573 79.3182 7.08594C79.3614 6.49346 79.5062 5.8429 79.758 5.11255L79.1503 4.88612C78.8192 5.77204 78.6449 6.58113 78.6275 7.31339C78.022 7.45573 77.3907 7.45831 76.7348 7.3352L76.6164 8.04743C77.3157 8.18113 77.9957 8.16743 78.6717 8.01925C78.7126 8.34224 78.7946 8.64765 78.9331 8.94838C79.377 9.94045 80.4503 11.1642 82.1442 12.5992L83.3727 13.6399L83.9449 13.181C83.3773 12.7526 82.8379 12.3219 82.3267 11.8888C80.9292 10.6918 80.0143 9.66776 79.5973 8.82956C79.4589 8.52882 79.3745 8.19523 79.3289 7.81586C80.2792 7.4676 81.1886 6.79634 82.0659 5.82265L82.3309 5.50981L81.1177 4.48207C81.9 4.33219 82.7945 4.08078 83.8141 3.7126L84.189 3.27005L82.0983 1.49896ZM90.1467 14.9879L89.733 15.4763L91.1598 16.685L90.0868 17.9516L90.598 18.3847L91.671 17.1181L92.7774 18.0553L93.1911 17.567L92.0847 16.6297L92.8798 15.6912L93.7725 16.4475L94.1797 15.9668L93.287 15.2105L94.1596 14.1805L93.6484 13.7474L92.7758 14.7775L91.9899 14.1117C92.6013 13.8695 93.2545 13.5316 93.9441 13.1198L95.5541 14.4837L95.9613 14.003L94.5039 12.7684C94.773 12.59 95.055 12.3964 95.3358 12.1887L94.9444 11.6606C94.616 11.8935 94.2941 12.1188 93.9851 12.3289L93.0771 11.5597L92.6699 12.0404L93.4329 12.6867C92.6892 13.1314 92.0131 13.4499 91.3982 13.6498L91.1172 14.1981L92.3686 15.2582L91.5735 16.1967L90.1467 14.9879ZM92.5883 9.93982L91.9706 9.84904C91.9249 10.5836 91.843 11.2219 91.7182 11.7715L92.3758 11.8306C92.4836 11.3321 92.5515 10.695 92.5883 9.93982ZM90.3548 18.7028C90.0648 18.4572 89.7813 18.2039 89.4978 17.9507C89.2132 17.6833 88.999 17.4101 88.8565 17.1452C88.7169 16.8304 88.6478 16.5097 88.6632 16.1821C88.6662 16.1322 88.6551 16.0834 88.6504 16.027L91.2618 12.9445L90.1402 11.9943L89.7265 12.4826L90.3445 13.0062L88.1662 15.5775C87.8427 15.5263 87.3106 15.6129 86.5635 15.845L86.5426 16.5349C87.389 16.2166 87.8776 16.1194 88.0073 16.2293C88.076 16.2874 88.1147 16.4119 88.1169 16.6104C88.119 16.9792 88.2046 17.3269 88.394 17.6447C88.59 17.9548 88.8641 18.2656 89.2086 18.5706C89.431 18.7722 89.6611 18.9802 89.89 19.1741L90.9201 20.0467L91.5046 19.6507C91.1395 19.3545 90.7515 19.0389 90.3548 18.7028ZM90.6598 8.07018C89.7098 8.85123 88.71 9.45901 87.6821 9.89884L87.8843 10.542C88.4676 10.3021 89.0732 9.98948 89.687 9.6052L90.9994 10.717L91.439 10.1981L90.2868 9.22209C90.5547 9.02964 90.8226 8.83718 91.0957 8.62301L90.6598 8.07018ZM88.4817 10.301L88.0615 10.7969L88.4506 11.1266L87.6427 12.0803L86.7957 11.3629L86.3626 11.8741L87.2096 12.5916L85.7165 14.3541C85.626 14.4609 85.4938 14.4932 85.3341 14.4496L85.1523 15.0819C85.7676 15.3148 86.3671 15.4426 86.9531 15.4935L87.2623 14.9428C86.8782 14.932 86.5341 14.8895 86.23 14.8154L87.7361 13.0376L88.5754 13.7486L89.0085 13.2374L88.1691 12.5263L88.9771 11.5726L89.6028 12.1026L90.0229 11.6066L88.4817 10.301Z" fill="white"/>
</svg>
