<svg width="98" height="48" viewBox="0 0 98 48" fill="none" xmlns="http://www.w3.org/2000/svg">
<mask id="mask0_301_3835" style="mask-type:alpha" maskUnits="userSpaceOnUse" x="0" y="0" width="98" height="47">
<rect x="0.5" y="0.5" width="97" height="46" rx="3.5" fill="white" stroke="#3674FA"/>
</mask>
<g mask="url(#mask0_301_3835)">
<path d="M72.5742 -11L115.303 25.1973L106.636 35.428L63.9074 -0.769338L72.5742 -11Z" fill="#E4CE00"/>
</g>
<path d="M80.3477 5.80874L77.6264 9.02103L78.1606 9.4735L80.8624 6.2841C80.9725 6.92776 81.0231 7.62599 81.0092 8.40052L81.7152 8.18601C81.6825 7.79138 81.6357 7.39791 81.5673 6.99915C81.9536 7.03813 82.3765 7.00314 82.8152 6.90298L82.7586 6.30457C82.2723 6.42995 81.8353 6.46611 81.4554 6.4195C81.4021 6.20396 81.3488 5.98842 81.289 5.78051L81.3989 5.6508C82.2364 5.48216 82.967 5.22303 83.5973 4.86577L83.9787 4.41559L82.9105 3.51066L83.268 3.63007C83.4392 3.21148 83.6044 2.72242 83.7498 2.16406L83.0929 1.85656C82.9916 2.34742 82.8469 2.82769 82.6663 3.30382L81.4226 2.25022L80.996 2.75381L83.0104 4.46025C81.9331 4.98931 80.4561 5.23215 78.5858 5.18116L78.2807 5.86628C79.0205 5.89019 79.707 5.86886 80.3477 5.80874ZM86.5459 4.57209L80.638 11.5461L81.1798 12.005L84.4828 8.10597C84.6814 8.87711 84.8652 9.8978 85.0395 11.1463L85.7683 10.9512C85.54 9.73553 85.2752 8.59382 84.9611 7.54134L87.0877 5.03102L86.5459 4.57209ZM90.1467 14.9879L89.733 15.4763L91.1598 16.685L90.0868 17.9516L90.598 18.3847L91.671 17.1181L92.7774 18.0553L93.1911 17.567L92.0847 16.6297L92.8798 15.6912L93.7725 16.4475L94.1797 15.9668L93.287 15.2105L94.1596 14.1805L93.6484 13.7474L92.7758 14.7775L91.9899 14.1117C92.6013 13.8695 93.2545 13.5316 93.9441 13.1198L95.5541 14.4837L95.9613 14.003L94.5039 12.7684C94.773 12.59 95.055 12.3964 95.3358 12.1887L94.9444 11.6606C94.616 11.8935 94.2941 12.1188 93.9851 12.3289L93.0771 11.5597L92.6699 12.0404L93.4329 12.6867C92.6892 13.1314 92.0131 13.4499 91.3982 13.6498L91.1172 14.1981L92.3686 15.2582L91.5735 16.1967L90.1467 14.9879ZM92.5883 9.93982L91.9706 9.84904C91.9249 10.5836 91.843 11.2219 91.7182 11.7715L92.3758 11.8306C92.4836 11.3321 92.5515 10.695 92.5883 9.93982ZM90.3548 18.7028C90.0648 18.4572 89.7813 18.2039 89.4978 17.9507C89.2132 17.6833 88.999 17.4101 88.8565 17.1452C88.7169 16.8304 88.6478 16.5097 88.6632 16.1821C88.6662 16.1322 88.6551 16.0834 88.6504 16.027L91.2618 12.9445L90.1402 11.9943L89.7265 12.4826L90.3445 13.0062L88.1662 15.5775C87.8427 15.5263 87.3106 15.6129 86.5635 15.845L86.5426 16.5349C87.389 16.2166 87.8776 16.1194 88.0073 16.2293C88.076 16.2874 88.1147 16.4119 88.1169 16.6104C88.119 16.9792 88.2046 17.3269 88.394 17.6447C88.59 17.9548 88.8641 18.2656 89.2086 18.5706C89.431 18.7722 89.6611 18.9802 89.89 19.1741L90.9201 20.0467L91.5046 19.6507C91.1395 19.3545 90.7515 19.0389 90.3548 18.7028ZM90.6598 8.07018C89.7098 8.85123 88.71 9.45901 87.6821 9.89884L87.8843 10.542C88.4676 10.3021 89.0732 9.98948 89.687 9.6052L90.9994 10.717L91.439 10.1981L90.2868 9.22209C90.5547 9.02964 90.8226 8.83718 91.0957 8.62301L90.6598 8.07018ZM88.4817 10.301L88.0615 10.7969L88.4506 11.1266L87.6427 12.0803L86.7957 11.3629L86.3626 11.8741L87.2096 12.5916L85.7165 14.3541C85.626 14.4609 85.4938 14.4932 85.3341 14.4496L85.1523 15.0819C85.7676 15.3148 86.3671 15.4426 86.9531 15.4935L87.2623 14.9428C86.8782 14.932 86.5341 14.8895 86.23 14.8154L87.7361 13.0376L88.5754 13.7486L89.0085 13.2374L88.1691 12.5263L88.9771 11.5726L89.6028 12.1026L90.0229 11.6066L88.4817 10.301Z" fill="white"/>
</svg>
