<svg width="16" height="16" viewBox="0 0 16 16" fill="none" xmlns="http://www.w3.org/2000/svg">
<path d="M10.5 1C10.891 1 11.2083 1.32819 11.2083 1.73258V4.66288C11.2083 5.06726 10.891 5.39546 10.5 5.39546H9.08333V6.86061H11.9167C12.3077 6.86061 12.625 7.1888 12.625 7.59319V9.79092H14.0417C14.4327 9.79092 14.75 10.1191 14.75 10.5235V13.4538C14.75 13.8582 14.4327 14.1864 14.0417 14.1864H9.79167C9.40067 14.1864 9.08333 13.8582 9.08333 13.4538V10.5235C9.08333 10.1191 9.40067 9.79092 9.79167 9.79092H11.2083V8.32576H5.54167V9.79092H6.95833C7.34933 9.79092 7.66667 10.1191 7.66667 10.5235V13.4538C7.66667 13.8582 7.34933 14.1864 6.95833 14.1864H2.70833C2.31733 14.1864 2 13.8582 2 13.4538V10.5235C2 10.1191 2.31733 9.79092 2.70833 9.79092H4.125V7.59319C4.125 7.1888 4.44233 6.86061 4.83333 6.86061H7.66667V5.39546H6.25C5.859 5.39546 5.54167 5.06726 5.54167 4.66288V1.73258C5.54167 1.32819 5.859 1 6.25 1H10.5ZM6.25 11.2561H3.41667V12.7212H6.25V11.2561ZM13.3333 11.2561H10.5V12.7212H13.3333V11.2561ZM9.79167 2.46515H6.95833V3.93031H9.79167V2.46515Z" fill="#3674FA"/>
</svg>
