<svg width="14" height="14" viewBox="0 0 14 14" fill="none" xmlns="http://www.w3.org/2000/svg">
<path d="M7.06409 13.5625C3.3532 13.5625 0.4375 12.775 0.4375 11.5281C0.4375 10.7406 1.49775 10.2156 3.28694 9.8875C3.552 9.82188 3.81706 9.95313 3.81706 10.2156C3.88333 10.4125 3.7508 10.675 3.48573 10.7406H3.41947C2.16041 11.0031 1.36522 11.3969 1.36522 11.5281C1.36522 11.5938 1.43149 11.6594 1.63029 11.7906C1.89535 11.9219 2.29295 12.1187 2.82307 12.25C3.88333 12.5125 5.40745 12.7094 6.99783 12.7094C8.58821 12.7094 10.1123 12.5781 11.1726 12.25C11.7027 12.1187 12.1003 11.9875 12.3654 11.7906C12.5642 11.6594 12.6304 11.5938 12.6304 11.5281C12.6304 11.3313 11.769 10.9375 10.3774 10.675C10.1123 10.6094 9.91353 10.4125 9.9798 10.15C10.0461 9.8875 10.2449 9.75625 10.5099 9.82187C12.3654 10.15 13.5582 10.7406 13.5582 11.5281C13.6907 12.775 10.775 13.5625 7.06409 13.5625ZM8.25688 11.0688C7.99182 11.2656 7.79302 11.4625 7.59422 11.5281C7.32916 11.6594 7.13036 11.725 6.93156 11.725C6.73276 11.725 6.53397 11.6594 6.2689 11.5281C6.0701 11.3969 5.80504 11.2 5.60624 11.0688C5.07612 10.675 4.54599 10.0844 4.01586 9.49375C3.22067 8.575 1.96162 6.86875 1.96162 5.29375C1.96162 3.98125 2.42548 2.73437 3.28694 1.88125C3.7508 1.42187 4.28092 1.09375 4.87732 0.83125C5.53998 0.56875 6.20264 0.4375 6.93156 0.4375C7.66049 0.4375 8.32315 0.56875 8.98581 0.83125C9.5822 1.09375 10.1123 1.42187 10.5762 1.88125C11.4376 2.8 11.9015 3.98125 11.9015 5.29375C11.9015 6.86875 10.5762 8.575 9.84726 9.49375C9.31714 10.0844 8.72074 10.675 8.25688 11.0688V11.0688ZM6.93156 1.225C4.54599 1.225 2.88934 2.93125 2.88934 5.29375C2.88934 6.2125 3.552 7.525 4.67852 8.90312C5.14238 9.42812 5.60624 9.95312 6.13637 10.3469C6.60023 10.7406 6.8653 10.8719 6.93156 10.9375C7.06409 10.8719 7.32916 10.7406 7.72675 10.3469C8.25688 9.8875 8.72074 9.42812 9.1846 8.90312C10.3111 7.525 10.9738 6.2125 10.9738 5.29375C10.9738 2.93125 9.31714 1.225 6.93156 1.225V1.225ZM6.93156 7.06562C6.2689 7.06562 5.67251 6.86875 5.20865 6.40938C4.81105 6.01563 4.54599 5.49063 4.54599 4.9C4.54599 4.30938 4.81105 3.78437 5.27491 3.39062C5.73878 2.99687 6.33517 2.73437 6.99783 2.73437C7.66049 2.73437 8.25688 2.93125 8.72074 3.39062C9.1846 3.78437 9.44967 4.375 9.44967 4.9C9.44967 5.49063 9.1846 6.01563 8.72074 6.40938C8.19061 6.86875 7.59422 7.06562 6.93156 7.06562ZM6.93156 3.52187C6.0701 3.52187 5.40745 4.1125 5.40745 4.9C5.40745 5.6875 6.0701 6.27812 6.93156 6.27812C7.79302 6.27812 8.45568 5.6875 8.45568 4.9C8.45568 4.1125 7.79302 3.52187 6.93156 3.52187Z" fill="white"/>
</svg>
