<svg width="16" height="16" viewBox="0 0 16 16" fill="none" xmlns="http://www.w3.org/2000/svg">
<path d="M14.1418 1.64948H1.90321C1.26685 1.64948 0.749756 2.16657 0.749756 2.80293V10.5942C0.749756 11.2306 1.26685 11.7484 1.90321 11.7484H3.36066C3.437 11.7481 3.51238 11.7315 3.58176 11.6997C3.59776 11.6924 3.61012 11.6793 3.62539 11.6706C3.6771 11.642 3.72397 11.6054 3.7643 11.5622C3.76939 11.5557 3.77739 11.5542 3.78176 11.5477L6.45085 8.27638L7.67921 9.33529C7.78602 9.42726 7.92428 9.4743 8.06501 9.46658C8.20574 9.45885 8.33802 9.39694 8.43412 9.29384L10.7883 6.77093C11.0632 6.93457 11.3796 7.0342 11.7214 7.0342C12.2086 7.03382 12.6757 6.84017 13.0202 6.49575C13.3648 6.15133 13.5586 5.68429 13.5592 5.19711C13.5586 4.70987 13.3648 4.24275 13.0203 3.89822C12.6758 3.55368 12.2086 3.35987 11.7214 3.35929C11.2343 3.36006 10.7673 3.55396 10.423 3.89847C10.0786 4.24298 9.88488 4.70999 9.8843 5.19711C9.8843 5.46984 9.94757 5.72657 10.0545 5.95857L7.99412 8.16584L6.73812 7.08366C6.68292 7.03606 6.61873 7 6.54936 6.97763C6.47999 6.95525 6.40684 6.94701 6.33423 6.95338C6.26162 6.95975 6.19102 6.98062 6.12661 7.01473C6.0622 7.04885 6.00528 7.09553 5.95921 7.15202L3.10103 10.6567H1.90321C1.89494 10.6567 1.88674 10.6551 1.87911 10.6519C1.87147 10.6487 1.86454 10.6441 1.85872 10.6382C1.85291 10.6323 1.84832 10.6253 1.84522 10.6176C1.84212 10.61 1.84057 10.6017 1.84066 10.5935V2.80293C1.84066 2.76875 1.86903 2.74038 1.90321 2.74038H14.1418C14.1759 2.74038 14.2043 2.76948 14.2043 2.80293V10.5942C14.2044 10.6025 14.2029 10.6107 14.1998 10.6184C14.1967 10.626 14.1921 10.633 14.1862 10.6389C14.1804 10.6448 14.1735 10.6495 14.1659 10.6526C14.1582 10.6558 14.15 10.6575 14.1418 10.6575H7.80721C7.66255 10.6575 7.52381 10.7149 7.42152 10.8172C7.31922 10.9195 7.26176 11.0583 7.26176 11.2029C7.26176 11.2146 7.26757 11.224 7.2683 11.2357L7.26757 11.2407V13.5462H4.56357C4.41891 13.5462 4.28017 13.6037 4.17788 13.706C4.07559 13.8083 4.01812 13.947 4.01812 14.0917C4.01812 14.2363 4.07559 14.3751 4.17788 14.4774C4.28017 14.5796 4.41891 14.6371 4.56357 14.6371H11.4814C11.6261 14.6371 11.7648 14.5796 11.8671 14.4774C11.9694 14.3751 12.0268 14.2363 12.0268 14.0917C12.0268 13.947 11.9694 13.8083 11.8671 13.706C11.7648 13.6037 11.6261 13.5462 11.4814 13.5462H8.35848V11.7484H14.1418C14.7774 11.7484 15.2952 11.2306 15.2952 10.5942V2.80293C15.2952 2.16657 14.7774 1.64948 14.1418 1.64948ZM11.7214 4.4502C11.8694 4.44991 12.0141 4.49354 12.1372 4.57554C12.2604 4.65755 12.3564 4.77426 12.4132 4.91089C12.47 5.04752 12.485 5.19793 12.4562 5.34307C12.4275 5.48821 12.3563 5.62156 12.2518 5.72624C12.1472 5.83091 12.0139 5.90221 11.8688 5.93109C11.7237 5.95997 11.5733 5.94515 11.4366 5.88849C11.2999 5.83184 11.1831 5.7359 11.101 5.61282C11.0188 5.48975 10.9751 5.34507 10.9752 5.19711C10.9752 4.78548 11.3098 4.4502 11.7214 4.4502Z" fill="#3674FA"/>
</svg>
