<svg width="16" height="16" viewBox="0 0 16 16" fill="none" xmlns="http://www.w3.org/2000/svg">
<path d="M7.98286 1C4.14536 1 1.00317 4.12187 1.00317 7.97969C1.00317 11.8172 4.12349 14.9578 7.9813 14.9578C11.8391 14.9578 14.9594 11.8375 14.9594 7.97969C14.961 4.14219 11.8407 1 7.98286 1V1ZM11.8829 10.8953C11.8813 10.9937 11.8 11.0734 11.7 11.0734C11.6125 11.0734 11.5391 11.0125 11.5219 10.9281C11.5188 10.9172 11.4 10.3781 10.8907 9.84844C10.2422 9.17344 9.23755 8.80312 7.97817 8.77031V10.2359C7.97817 10.3047 7.93911 10.3656 7.87817 10.3969C7.81724 10.4281 7.7438 10.4219 7.68755 10.3828L4.19067 7.875C4.17505 7.86406 4.16099 7.85 4.15005 7.83437C4.09224 7.75312 4.11099 7.64219 4.19067 7.58437L7.68755 5.06719C7.7438 5.02656 7.81724 5.02187 7.87817 5.05156C7.93911 5.08281 7.97661 5.14375 7.97817 5.2125V6.76875C8.34067 6.78281 8.70161 6.8375 9.05161 6.92969C9.77661 7.12031 10.3797 7.45156 10.8422 7.91719C11.5547 8.62969 11.9047 9.63281 11.8829 10.8953Z" fill="#104DD0"/>
</svg>
