<svg width="16" height="16" viewBox="0 0 16 16" fill="none" xmlns="http://www.w3.org/2000/svg">
<path d="M9.225 15.1H12.9C14.1132 15.1 15.1 14.1132 15.1 12.9V3.1C15.1 1.8868 14.1132 0.9 12.9 0.9H3.1C1.8868 0.9 0.9 1.8868 0.9 3.1V12.025C0.9 12.1443 0.947411 12.2588 1.0318 12.3432C1.11619 12.4276 1.23065 12.475 1.35 12.475C1.46935 12.475 1.58381 12.4276 1.6682 12.3432C1.75259 12.2588 1.8 12.1443 1.8 12.025V3.1C1.8 2.3833 2.3833 1.8 3.1 1.8H12.9C13.6167 1.8 14.2 2.3833 14.2 3.1V12.9C14.2 13.6167 13.6167 14.2 12.9 14.2H9.225C9.10565 14.2 8.99119 14.2474 8.9068 14.3318C8.82241 14.4162 8.775 14.5307 8.775 14.65C8.775 14.7693 8.82241 14.8838 8.9068 14.9682C8.99119 15.0526 9.10565 15.1 9.225 15.1Z" fill="#999999" stroke="#999999" stroke-width="0.2"/>
<path d="M8.90683 14.3317L8.90684 14.3316L11.2137 12.0248L9.225 10.0361L4.29316 14.968L4.29315 14.968C4.20876 15.0523 4.09432 15.0997 3.975 15.0997C3.85568 15.0997 3.74124 15.0523 3.65685 14.968L3.65684 14.968L1.03184 12.343L1.03183 12.343C0.947467 12.2586 0.900075 12.1441 0.900075 12.0248C0.900075 11.9055 0.947467 11.791 1.03183 11.7067L1.03184 11.7066L3.65626 9.08222C3.69764 9.03955 3.74707 9.0055 3.80169 8.98204C3.85659 8.95845 3.91564 8.94604 3.97539 8.94552C4.03514 8.945 4.0944 8.95639 4.1497 8.97901C4.205 9.00164 4.25525 9.03505 4.2975 9.07731C4.33975 9.11956 4.37316 9.1698 4.39579 9.2251C4.41842 9.28041 4.4298 9.33966 4.42928 9.39941C4.42876 9.45916 4.41635 9.51821 4.39277 9.57312C4.36931 9.62773 4.33526 9.67716 4.29259 9.71854L1.98649 12.0248L3.975 14.0135L8.90684 9.08164L8.90685 9.08163C8.99124 8.99727 9.10568 8.94988 9.225 8.94988C9.34432 8.94988 9.45876 8.99727 9.54315 9.08163L9.54316 9.08164L12.1682 11.7066L12.1682 11.7067C12.2525 11.791 12.2999 11.9055 12.2999 12.0248C12.2999 12.1441 12.2525 12.2586 12.1682 12.343L12.1682 12.343L9.54329 14.9678L8.90683 14.3317ZM8.90683 14.3317C8.84391 14.3946 8.80107 14.4748 8.78372 14.562C8.76636 14.6493 8.77527 14.7398 8.80932 14.822C8.84338 14.9042 8.90104 14.9745 8.97502 15.0239C9.04897 15.0734 9.13591 15.0998 9.22485 15.0998M8.90683 14.3317L9.22485 15.0998M9.22485 15.0998C9.28401 15.0999 9.3426 15.0883 9.39725 15.0656C9.45185 15.043 9.50143 15.0098 9.54316 14.968L9.22485 15.0998ZM1.35 5.4748H14.65C14.7693 5.4748 14.8838 5.42739 14.9682 5.343C15.0526 5.25861 15.1 5.14415 15.1 5.0248C15.1 4.90546 15.0526 4.791 14.9682 4.70661C14.8838 4.62222 14.7693 4.5748 14.65 4.5748H1.35C1.23065 4.5748 1.11619 4.62222 1.0318 4.70661C0.947411 4.791 0.9 4.90546 0.9 5.0248C0.9 5.14415 0.947411 5.25861 1.0318 5.343C1.11619 5.42739 1.23065 5.4748 1.35 5.4748Z" fill="#999999" stroke="#999999" stroke-width="0.2"/>
</svg>
