<svg width="16" height="16" viewBox="0 0 16 16" fill="none" xmlns="http://www.w3.org/2000/svg">
<path d="M8.61619 15L8.23166 14.6332C8.17853 14.5826 6.92627 13.386 5.65378 11.8226C3.89302 9.65703 3 7.9064 3 6.61619C3 5.11601 3.58439 3.7069 4.64438 2.64438C5.70437 1.58439 7.11601 1 8.61619 1C10.1164 1 11.5255 1.58439 12.588 2.64438C13.648 3.70437 14.2324 5.11601 14.2324 6.61619C14.2324 7.9064 13.3394 9.65703 11.5786 11.8226C10.3061 13.386 9.05385 14.5826 9.00072 14.6332L8.61619 15ZM8.61619 2.11312C6.13444 2.11312 4.11312 4.13444 4.11312 6.61619C4.11312 7.61294 4.96567 9.20925 6.51138 11.1117C7.32598 12.1135 8.1507 12.9787 8.61619 13.4492C9.08168 12.9787 9.9064 12.116 10.721 11.1117C12.2667 9.20925 13.1193 7.61294 13.1193 6.61619C13.1193 4.13191 11.0979 2.11312 8.61619 2.11312Z" fill="#999999"/>
<path d="M8.61618 9.07716C7.29056 9.07716 6.21286 7.99946 6.21286 6.67383C6.21286 5.34821 7.29056 4.27051 8.61618 4.27051C9.94181 4.27051 11.0195 5.34821 11.0195 6.67383C11.0195 7.99946 9.93928 9.07716 8.61618 9.07716ZM8.61618 5.38363C7.90531 5.38363 7.32598 5.96295 7.32598 6.67383C7.32598 7.38471 7.90531 7.96404 8.61618 7.96404C9.32706 7.96404 9.90639 7.38471 9.90639 6.67383C9.90639 5.96295 9.32706 5.38363 8.61618 5.38363Z" fill="#999999"/>
</svg>
