<svg width="16" height="16" viewBox="0 0 16 16" fill="none" xmlns="http://www.w3.org/2000/svg">
<path fill-rule="evenodd" clip-rule="evenodd" d="M8 15C4.13401 15 1 11.866 1 8C1 4.13401 4.13401 1 8 1C9.85652 1 11.637 1.7375 12.9497 3.05025C14.2625 4.36301 15 6.14348 15 8C15 9.75304 14.3556 11.3556 13.2907 12.5836L14.687 13.9799C14.8823 14.1752 14.8823 14.4917 14.687 14.687C14.4917 14.8823 14.1752 14.8823 13.9799 14.687L12.5836 13.2907C11.3556 14.3556 9.75304 15 8 15ZM14 8C14 4.68629 11.3137 2 8 2C4.68629 2 2 4.68629 2 8C2 11.3137 4.68629 14 8 14C11.3124 13.9969 13.9969 11.3124 14 8Z" fill="#102A49"/>
</svg>
