<svg width="16" height="16" viewBox="0 0 16 16" fill="none" xmlns="http://www.w3.org/2000/svg">
<path d="M8.35031 1.00342C5.40014 1.00342 3 3.40356 3 6.35373C3 8.31611 4.08995 10.1321 5.79797 11.0629L5.79803 13.3293C5.79803 14.2467 6.63578 14.993 7.66548 14.993H9.03511C10.0648 14.993 10.9026 14.2467 10.9026 13.3293V11.0629C12.6106 10.1321 13.7006 8.31606 13.7006 6.35373C13.7006 3.40356 11.3005 1.00342 8.35031 1.00342ZM9.13172 14.0051H7.56883C7.31825 14.0051 7.11509 13.8019 7.11509 13.5513C7.11509 13.3007 7.31825 13.0976 7.56883 13.0976H9.13172C9.3823 13.0976 9.58545 13.3007 9.58545 13.5513C9.58547 13.8019 9.3823 14.0051 9.13172 14.0051ZM9.13172 12.5427H7.56883C7.31825 12.5427 7.11509 12.3396 7.11509 12.089C7.11509 11.8384 7.31825 11.6353 7.56883 11.6353H9.13172C9.3823 11.6353 9.58545 11.8384 9.58545 12.089C9.58545 12.3396 9.3823 12.5427 9.13172 12.5427ZM11.6203 6.76161C11.3697 6.76161 11.1665 6.55845 11.1665 6.30787C11.1666 6.14411 11.1525 5.98065 11.1247 5.81928C10.9595 4.86801 10.3283 4.07479 9.4363 3.69748C9.20544 3.59986 9.09747 3.33362 9.19511 3.10284C9.29273 2.87206 9.55912 2.76417 9.78975 2.86165C10.9673 3.3597 11.8006 4.40734 12.0188 5.66412C12.0556 5.87673 12.074 6.0921 12.074 6.30787C12.074 6.55843 11.8708 6.76161 11.6203 6.76161Z" fill="#3674FA"/>
</svg>
