<svg width="16" height="17" viewBox="0 0 16 17" fill="none" xmlns="http://www.w3.org/2000/svg">
<path d="M10.8701 6.26773C11.3978 5.69293 12.0207 4.82976 12.0207 3.91852C12.0207 3.39081 11.8765 2.9602 11.541 2.62376C10.9181 2.00091 9.81466 2.00091 8.56894 2.00091H7.65771C6.50714 2.00091 5.54882 1.95186 4.92498 2.5757C4.58854 2.91214 4.44435 3.34373 4.44435 3.9195C4.44435 5.21328 5.5959 6.36385 6.12361 6.79544C6.31586 6.98769 6.65132 6.93963 6.79551 6.74738C6.98678 6.5561 6.93872 6.21966 6.74647 6.07645C5.93234 5.35747 5.40463 4.54236 5.40463 3.91852C5.40463 3.43887 5.54882 3.29566 5.5959 3.2476C5.93234 2.95922 6.74745 2.95922 7.65771 2.95922H8.66507C9.67145 2.95922 10.6307 2.95922 10.9662 3.29468C10.9662 3.34275 11.1104 3.48694 11.1104 3.91852C11.1104 4.49332 10.5827 5.30843 9.71951 6.02741C9.5763 6.12354 9.52824 6.31579 9.5763 6.459C9.62753 6.61513 9.72891 6.74996 9.86468 6.84252C11.6381 7.51442 13.5077 9.33591 13.5077 11.8293C13.5077 14.1785 12.0697 15.0417 8.23446 15.0417C4.39923 15.0417 2.96126 14.1785 2.96126 11.8293C2.96126 10.3904 3.63218 8.95239 4.83081 7.89795C5.02012 7.70667 5.06819 7.41928 4.87692 7.22604C4.68564 7.03379 4.39727 6.98671 4.206 7.17896C2.81413 8.42468 2 10.102 2 11.8283C2 16 6.21974 16 8.2325 16C10.2462 16 14.466 16 14.466 11.8283C14.514 9.52718 13.028 7.36827 10.8701 6.26675V6.26773Z" fill="#999999"/>
<path d="M10.1992 8.61714C10.2445 8.57382 10.2806 8.52176 10.3052 8.4641C10.3299 8.40644 10.3426 8.34438 10.3426 8.28167C10.3426 8.21897 10.3299 8.15691 10.3052 8.09925C10.2806 8.04159 10.2445 7.98953 10.1992 7.94621C10.1558 7.90072 10.1037 7.8645 10.046 7.83975C9.98821 7.81501 9.92604 7.80225 9.86321 7.80225C9.80038 7.80225 9.73821 7.81501 9.68046 7.83975C9.62271 7.8645 9.57059 7.90072 9.52726 7.94621L8.32863 9.09678L7.12999 7.94621C7.08667 7.90087 7.03461 7.86478 6.97696 7.84013C6.9193 7.81547 6.85724 7.80276 6.79453 7.80276C6.73182 7.80276 6.66977 7.81547 6.61211 7.84013C6.55445 7.86478 6.50239 7.90087 6.45907 7.94621C6.41358 7.98955 6.37736 8.04167 6.35261 8.09942C6.32786 8.15716 6.3151 8.21934 6.3151 8.28217C6.3151 8.34499 6.32786 8.40717 6.35261 8.46491C6.37736 8.52266 6.41358 8.57478 6.45907 8.61812L7.80189 9.91287V10.2003H6.8426C6.55422 10.2003 6.36295 10.3925 6.36295 10.6799C6.36295 10.9673 6.5552 11.1596 6.8426 11.1596H7.80189V11.6392H6.8426C6.55422 11.6392 6.36295 11.8305 6.36295 12.1179C6.36295 12.4063 6.5552 12.5985 6.8426 12.5985H7.80189V13.6039C7.80189 13.8923 7.99317 14.0836 8.28056 14.0836C8.56796 14.0836 8.76021 13.8913 8.76021 13.6039V12.5975H9.71853C10.0069 12.5975 10.1992 12.4053 10.1992 12.1169C10.1992 11.8305 10.0069 11.6382 9.71853 11.6382H8.76021V11.1586H9.71853C10.0069 11.1586 10.1992 10.9673 10.1992 10.6789C10.1992 10.3915 10.0069 10.2003 9.71853 10.2003H8.76021V10.008L10.1992 8.61714Z" fill="#999999"/>
</svg>
