<svg width="16" height="16" viewBox="0 0 16 16" fill="none" xmlns="http://www.w3.org/2000/svg">
<path d="M2.80618 13.254L2.80619 13.254L3.49491 10.4991C3.49491 10.4991 3.49492 10.4991 3.49492 10.4991C3.52682 10.3718 3.60033 10.2588 3.70379 10.1781C3.80725 10.0973 3.93473 10.0535 4.06598 10.0535H12.9333C13.0646 10.0535 13.1921 10.0973 13.2955 10.1781C13.399 10.2588 13.4725 10.3718 13.5044 10.4991L14.1931 13.254L14.1931 13.254C14.2149 13.3408 14.2165 13.4315 14.198 13.519C14.1795 13.6066 14.1412 13.6887 14.0862 13.7593C14.0311 13.8298 13.9607 13.8869 13.8803 13.9262C13.7999 13.9654 13.7116 13.9858 13.6221 13.9858H3.37666C3.28722 13.9857 3.19898 13.9653 3.11863 13.926C3.03828 13.8867 2.96794 13.8296 2.91295 13.7591C2.85796 13.6885 2.81977 13.6064 2.80127 13.5189C2.78277 13.4314 2.78445 13.3408 2.80618 13.254ZM12.934 9.16473H12.934H4.06597H4.06528H4.06522C3.73588 9.16494 3.41605 9.27519 3.15654 9.47796C2.89702 9.68073 2.71269 9.96439 2.63283 10.2839L1.9441 13.0388L2.0411 13.0631L1.9441 13.0388C1.88966 13.2566 1.88557 13.484 1.93214 13.7036C1.97871 13.9232 2.07471 14.1293 2.21286 14.3063C2.35102 14.4832 2.52768 14.6264 2.72943 14.7248C2.93119 14.8233 3.15273 14.8745 3.37723 14.8745H3.37725H13.6234H13.6235C13.8479 14.8744 14.0694 14.8231 14.2711 14.7246C14.4727 14.6261 14.6493 14.4829 14.7874 14.306C14.9254 14.129 15.0214 13.923 15.0679 13.7034C15.1144 13.4838 15.1103 13.2565 15.0559 13.0388L14.3672 10.2839C14.2873 9.96427 14.1028 9.68051 13.8432 9.47773C13.5835 9.27495 13.2635 9.16478 12.934 9.16473ZM10.3773 6.32094C9.87941 6.81883 9.20413 7.09855 8.5 7.09855C7.79587 7.09855 7.12059 6.81883 6.6227 6.32094C6.1248 5.82305 5.84509 5.14776 5.84509 4.44364C5.84509 3.73951 6.1248 3.06422 6.6227 2.56633C7.12059 2.06844 7.79587 1.78873 8.5 1.78873C9.20413 1.78873 9.87941 2.06844 10.3773 2.56633C10.8752 3.06422 11.1549 3.73951 11.1549 4.44364C11.1549 5.14776 10.8752 5.82305 10.3773 6.32094ZM5.99427 6.94937C6.65883 7.61393 7.56017 7.98727 8.5 7.98727C9.43983 7.98727 10.3412 7.61393 11.0057 6.94937C11.6703 6.28481 12.0436 5.38347 12.0436 4.44364C12.0436 3.50381 11.6703 2.60247 11.0057 1.93791C10.3412 1.27335 9.43983 0.9 8.5 0.9C7.56017 0.9 6.65883 1.27335 5.99427 1.93791C5.32971 2.60247 4.95636 3.50381 4.95636 4.44364C4.95636 5.38347 5.32971 6.28481 5.99427 6.94937Z" fill="#999999" stroke="#999999" stroke-width="0.2"/>
</svg>
