<svg width="20" height="20" viewBox="0 0 20 20" fill="none" xmlns="http://www.w3.org/2000/svg">
<path d="M7.57062 18.5C6.1464 18.0589 4.87866 17.2399 3.87484 16.1547C4.24932 15.6929 4.475 15.0963 4.475 14.4449C4.475 12.9798 3.33333 11.792 1.925 11.792C1.83981 11.792 1.75559 11.7963 1.67255 11.8048C1.55941 11.2294 1.5 10.6336 1.5 10.0234C1.5 9.09902 1.63633 8.20777 1.88921 7.3702C1.90112 7.37037 1.91305 7.37046 1.925 7.37046C3.33333 7.37046 4.475 6.18271 4.475 4.71754C4.475 4.29692 4.3809 3.89916 4.21345 3.54583C5.19644 2.59493 6.39621 1.88329 7.72714 1.5C8.14887 2.36001 9.00835 2.94893 10 2.94893C10.9917 2.94893 11.8511 2.36001 12.2729 1.5C13.6038 1.88329 14.8036 2.59493 15.7865 3.54583C15.6191 3.89916 15.525 4.29692 15.525 4.71754C15.525 6.18271 16.6667 7.37046 18.075 7.37046C18.0869 7.37046 18.0989 7.37037 18.1108 7.3702C18.3637 8.20777 18.5 9.09902 18.5 10.0234C18.5 10.6336 18.4406 11.2294 18.3275 11.8048C18.2444 11.7963 18.1602 11.792 18.075 11.792C16.6667 11.792 15.525 12.9798 15.525 14.4449C15.525 15.0963 15.7507 15.6929 16.1251 16.1547C15.1213 17.2399 13.8536 18.0589 12.4294 18.5C12.1007 17.4303 11.1373 16.6557 10 16.6557C8.8627 16.6557 7.89931 17.4303 7.57062 18.5Z" stroke="#665E5E"/>
<path d="M10 13C11.6569 13 13 11.6569 13 10C13 8.34314 11.6569 7 10 7C8.34314 7 7 8.34314 7 10C7 11.6569 8.34314 13 10 13Z" stroke="#665E5E"/>
</svg>
