<svg width="410" height="522" viewBox="0 0 410 522" fill="none" xmlns="http://www.w3.org/2000/svg">
<path d="M409.5 9.5H0.5V500V521.5H22.0538H409.5V9.5Z" stroke="#3674FA"/>
<path d="M17.5 519H394.5L390 522H20.5L17.5 519Z" fill="#0B43BD"/>
<path d="M1 522V498L21 522H1Z" fill="#0B43BD"/>
<path d="M409 522V498L389 522H409Z" fill="#0B43BD"/>
<path d="M69 5H310.5L305.5 10H64L69 5Z" fill="#CECECE"/>
<path d="M1 9C1 6.79086 2.79086 5 5 5L69 5L64 10H1L1 9Z" fill="#3674FA"/>
<path d="M315 0H406C408.209 0 410 1.79086 410 4V10H305L315 0Z" fill="#3674FA"/>
<path d="M299 5H307L302 10H294L299 5Z" fill="#0B43BD"/>
</svg>
