<svg width="26" height="26" viewBox="0 0 26 26" fill="none" xmlns="http://www.w3.org/2000/svg">
<g clip-path="url(#clip0_9_52)">
<path d="M13 26C5.83 26 0 20.17 0 13C0 5.83 5.83 0 13 0C20.17 0 26 5.83 26 13C26 20.17 20.17 26 13 26Z" fill="white"/>
<path d="M12.92 13.8399C15.3942 13.8399 17.4 11.8341 17.4 9.35988C17.4 6.88565 15.3942 4.87988 12.92 4.87988C10.4458 4.87988 8.44 6.88565 8.44 9.35988C8.44 11.8341 10.4458 13.8399 12.92 13.8399Z" fill="#064A89"/>
<path d="M13 15C8.58 15 5 18.58 5 23C5 23.08 5.01 23.16 5.01 23.23C7.22 24.96 9.99 26 13 26C16.01 26 18.78 24.96 20.99 23.23C20.99 23.15 21 23.07 21 23C21 18.58 17.42 15 13 15Z" fill="#064A89"/>
</g>
<defs>
<clipPath id="clip0_9_52">
<rect width="26" height="26" fill="white"/>
</clipPath>
</defs>
</svg>
