<svg width="16" height="16" viewBox="0 0 16 16" fill="none" xmlns="http://www.w3.org/2000/svg">
<g id="Frame" opacity="0.6" clip-path="url(#clip0_549_820)">
<path id="Vector" d="M15.8438 12.001L12.7047 8.86529C12.6122 8.77346 12.4871 8.72192 12.3567 8.72192C12.2263 8.72192 12.1013 8.77346 12.0088 8.86529L8.86972 12.001C8.77779 12.0934 8.72619 12.2184 8.72619 12.3486C8.72619 12.4789 8.77779 12.6039 8.86972 12.6962L12.0088 15.8566C12.1013 15.9485 12.2263 16 12.3567 16C12.4871 16 12.6122 15.9485 12.7047 15.8566L15.8438 12.7209C15.8931 12.6748 15.9324 12.619 15.9593 12.5571C15.9861 12.4952 16 12.4284 16 12.361C16 12.2935 15.9861 12.2267 15.9593 12.1648C15.9324 12.1029 15.8931 12.0472 15.8438 12.001ZM10.9575 12.001L10.6071 12.3511C10.5146 12.4429 10.3895 12.4945 10.2591 12.4945C10.1287 12.4945 10.0036 12.4429 9.91113 12.3511C9.81921 12.2587 9.76761 12.1338 9.76761 12.0035C9.76761 11.8732 9.81921 11.7483 9.91113 11.6559L10.2616 11.3058C10.354 11.214 10.4791 11.1625 10.6095 11.1625C10.7399 11.1625 10.865 11.214 10.9575 11.3058C11.0501 11.3976 11.1026 11.5222 11.1035 11.6524C11.1044 11.7827 11.0537 11.908 10.9624 12.001H10.9575ZM13.0502 12.6962L12.0038 13.7415C11.9114 13.8333 11.7863 13.8849 11.6559 13.8849C11.5255 13.8849 11.4004 13.8333 11.3079 13.7415C11.216 13.6491 11.1644 13.5241 11.1644 13.3939C11.1644 13.2636 11.216 13.1387 11.3079 13.0463L12.3543 12.001C12.3985 11.9494 12.453 11.9075 12.5142 11.8779C12.5754 11.8483 12.6421 11.8317 12.7101 11.8291C12.7781 11.8264 12.8459 11.8379 12.9092 11.8627C12.9725 11.8875 13.0301 11.9251 13.0782 11.9731C13.1263 12.0212 13.1639 12.0786 13.1887 12.1419C13.2135 12.2052 13.225 12.2729 13.2223 12.3408C13.2197 12.4087 13.2031 12.4753 13.1735 12.5365C13.1438 12.5976 13.1019 12.652 13.0502 12.6962ZM3.97851 7.11992L7.11757 3.98417C7.20949 3.89179 7.26109 3.76683 7.26109 3.63658C7.26109 3.50632 7.20949 3.38136 7.11757 3.28898L3.97851 0.143373C3.88603 0.0515436 3.76094 0 3.63055 0C3.50015 0 3.37506 0.0515436 3.28258 0.143373L0.143524 3.28405C0.0515977 3.37643 0 3.50139 0 3.63165C0 3.7619 0.0515977 3.88686 0.143524 3.97924L3.28258 7.11499C3.37441 7.20748 3.49914 7.25991 3.62953 7.26083C3.75992 7.26176 3.88538 7.2111 3.97851 7.11992ZM4.32894 6.07467C4.23452 6.15544 4.11307 6.19765 3.98885 6.19286C3.86463 6.18807 3.7468 6.13662 3.6589 6.04882C3.57099 5.96101 3.5195 5.8433 3.5147 5.71921C3.5099 5.59513 3.55216 5.4738 3.63301 5.37948C3.72549 5.28765 3.85058 5.23611 3.98098 5.23611C4.11137 5.23611 4.23646 5.28765 4.32894 5.37948C4.42086 5.47186 4.47246 5.59682 4.47246 5.72708C4.47246 5.85733 4.42086 5.98229 4.32894 6.07467ZM2.23623 4.67936C2.1443 4.58698 2.09271 4.46202 2.09271 4.33177C2.09271 4.20151 2.1443 4.07655 2.23623 3.98417L3.28258 2.93892C3.37506 2.84709 3.50015 2.79555 3.63055 2.79555C3.76094 2.79555 3.88603 2.84709 3.97851 2.93892C4.07044 3.0313 4.12203 3.15626 4.12203 3.28652C4.12203 3.41677 4.07044 3.54173 3.97851 3.63411L2.93215 4.67936C2.83968 4.77119 2.71459 4.82273 2.58419 4.82273C2.4538 4.82273 2.32871 4.77119 2.23623 4.67936ZM13.4056 5.37455C13.498 5.46638 13.6231 5.51792 13.7535 5.51792C13.8839 5.51792 14.009 5.46638 14.1015 5.37455L15.138 4.33916C15.1867 4.29276 15.2254 4.2369 15.2517 4.175C15.278 4.11311 15.2914 4.04649 15.291 3.97924C15.2904 3.8499 15.239 3.72595 15.1478 3.63411L12.3543 0.843493C12.3082 0.795775 12.253 0.75782 12.192 0.731895C12.1309 0.705971 12.0653 0.692609 11.9989 0.692609C11.9326 0.692609 11.8669 0.705971 11.8058 0.731895C11.7448 0.75782 11.6896 0.795775 11.6435 0.843493L10.6071 1.87888C10.5151 1.97126 10.4635 2.09622 10.4635 2.22648C10.4635 2.35673 10.5151 2.48169 10.6071 2.57407L13.4056 5.37455ZM12.7047 6.07467L9.91113 3.28405C9.81866 3.19222 9.69356 3.14068 9.56317 3.14068C9.43278 3.14068 9.30769 3.19222 9.21521 3.28405L0.696315 11.794C0.644887 11.8451 0.605395 11.907 0.580654 11.9752C0.555913 12.0434 0.546533 12.1162 0.553181 12.1884L0.799963 14.7325C0.810903 14.8465 0.861217 14.9531 0.942272 15.0341C1.02333 15.115 1.13006 15.1653 1.24417 15.1762L3.79095 15.4228C3.86325 15.4294 3.93611 15.42 4.00436 15.3953C4.07261 15.3706 4.13457 15.3311 4.1858 15.2798L12.7047 6.76986C12.7966 6.67748 12.8482 6.55252 12.8482 6.42227C12.8482 6.29201 12.7966 6.16705 12.7047 6.07467Z" fill="white"/>
</g>
<defs>
<clipPath id="clip0_549_820">
<rect width="16" height="16" fill="white"/>
</clipPath>
</defs>
</svg>
