<svg width="14" height="14" viewBox="0 0 14 14" fill="none" xmlns="http://www.w3.org/2000/svg">
<g clip-path="url(#clip0_27_1847)">
<path d="M12 14H0V0H8L12 4V14Z" fill="white" fill-opacity="0.5"/>
<path d="M8.61997 4.82007C10.08 4.82007 11.27 6.01007 11.27 7.47007C11.27 8.93007 10.08 10.1201 8.61997 10.1201C7.15997 10.1201 5.96997 8.93007 5.96997 7.47007C5.96997 6.01007 7.15997 4.82007 8.61997 4.82007ZM8.61997 2.82007C6.04997 2.82007 3.96997 4.90007 3.96997 7.47007C3.96997 10.0401 6.04997 12.1201 8.61997 12.1201C11.19 12.1201 13.27 10.0401 13.27 7.47007C13.27 4.90007 11.18 2.82007 8.61997 2.82007Z" fill="white"/>
<path d="M11.0628 10.1344L9.82129 10.9761L11.7403 13.8068L12.9818 12.9652L11.0628 10.1344Z" fill="white"/>
</g>
<defs>
<clipPath id="clip0_27_1847">
<rect width="13.26" height="14" fill="white"/>
</clipPath>
</defs>
</svg>
