<svg width="16" height="16" viewBox="0 0 16 16" fill="none" xmlns="http://www.w3.org/2000/svg">
<path d="M2.00023 10.7509C2.00023 11.4359 2.56972 12 3.28669 12H12.7135C13.4094 12 14 11.4359 14 10.7509V4.43827C14 4.32204 13.9522 4.21056 13.8671 4.12837C13.782 4.04617 13.6666 4 13.5462 4H2.45378C2.33343 4 2.21801 4.04617 2.13291 4.12837C2.04781 4.21056 2 4.32204 2 4.43827L2.00023 10.7509ZM10.3305 6.98266C10.1617 6.82138 10.1617 6.57945 10.3305 6.41839C10.4991 6.2571 10.7523 6.2571 10.9 6.41839L12.3761 7.88945C12.5447 8.05051 12.5447 8.29244 12.3761 8.4535L10.8998 9.92456C10.7312 10.0858 10.478 10.0858 10.3303 9.92456C10.1617 9.76328 10.1617 9.52135 10.3303 9.36029L11.5326 8.17147L10.3305 6.98266ZM7.16652 9.92456L8.2 6.13614C8.26331 5.91459 8.47409 5.79363 8.70597 5.85411C8.91698 5.91459 9.04358 6.13614 9.00138 6.3579L7.96812 10.1463C7.90482 10.3679 7.69404 10.4888 7.46216 10.4284C7.23005 10.3477 7.10344 10.1259 7.16652 9.92456ZM5.43761 6.39822C5.60642 6.23694 5.85963 6.23694 6.00711 6.39822C6.17592 6.55929 6.17592 6.80122 6.00711 6.9625L4.80504 8.15131L6.00711 9.34013C6.17592 9.50141 6.17592 9.74334 6.00711 9.9044C5.8383 10.0657 5.58532 10.0657 5.43761 9.9044L3.96147 8.43334C3.79266 8.27228 3.79266 8.03035 3.96147 7.86929L5.43761 6.39822Z" fill="#064A89"/>
<rect x="4" y="13" width="8" height="1" rx="0.5" fill="#B0C1D1"/>
</svg>
