<svg width="14" height="13" viewBox="0 0 14 13" fill="none" xmlns="http://www.w3.org/2000/svg">
<g clip-path="url(#clip0_27_1806)">
<path opacity="0.5" d="M10 10H4V11H10V10Z" fill="white"/>
<path opacity="0.5" d="M5.56848 3.74745L2.56836 8.74609L3.42576 9.26069L6.42588 4.26205L5.56848 3.74745Z" fill="white"/>
<path opacity="0.5" d="M8.42659 3.73892L7.56909 4.25342L10.5686 9.25264L11.4261 8.73814L8.42659 3.73892Z" fill="white"/>
<path d="M7 5C8.38071 5 9.5 3.88071 9.5 2.5C9.5 1.11929 8.38071 0 7 0C5.61929 0 4.5 1.11929 4.5 2.5C4.5 3.88071 5.61929 5 7 5Z" fill="white"/>
<path d="M2.5 13C3.88071 13 5 11.8807 5 10.5C5 9.11929 3.88071 8 2.5 8C1.11929 8 0 9.11929 0 10.5C0 11.8807 1.11929 13 2.5 13Z" fill="white"/>
<path d="M11.5 13C12.8807 13 14 11.8807 14 10.5C14 9.11929 12.8807 8 11.5 8C10.1193 8 9 9.11929 9 10.5C9 11.8807 10.1193 13 11.5 13Z" fill="white"/>
</g>
<defs>
<clipPath id="clip0_27_1806">
<rect width="14" height="13" fill="white"/>
</clipPath>
</defs>
</svg>
