<svg width="12" height="14" viewBox="0 0 12 14" fill="none" xmlns="http://www.w3.org/2000/svg">
<g clip-path="url(#clip0_27_1824)">
<path opacity="0.5" d="M2.11988 12.48L1.87988 11.52L8.56988 9.84005L0.879883 6.00005L9.77988 1.55005L10.2199 2.45005L3.11988 6.00005L11.4299 10.16L2.11988 12.48Z" fill="white"/>
<path d="M10 4C11.1046 4 12 3.10457 12 2C12 0.89543 11.1046 0 10 0C8.89543 0 8 0.89543 8 2C8 3.10457 8.89543 4 10 4Z" fill="white"/>
<path d="M2.5 8C3.88071 8 5 6.88071 5 5.5C5 4.11929 3.88071 3 2.5 3C1.11929 3 0 4.11929 0 5.5C0 6.88071 1.11929 8 2.5 8Z" fill="white"/>
<path d="M9.5 12C10.8807 12 12 10.8807 12 9.5C12 8.11929 10.8807 7 9.5 7C8.11929 7 7 8.11929 7 9.5C7 10.8807 8.11929 12 9.5 12Z" fill="white"/>
<path d="M2 14C3.10457 14 4 13.1046 4 12C4 10.8954 3.10457 10 2 10C0.89543 10 0 10.8954 0 12C0 13.1046 0.89543 14 2 14Z" fill="white"/>
</g>
<defs>
<clipPath id="clip0_27_1824">
<rect width="12" height="14" fill="white"/>
</clipPath>
</defs>
</svg>
