<svg width="16" height="16" viewBox="0 0 16 16" fill="none" xmlns="http://www.w3.org/2000/svg">
<g id="Frame" opacity="0.6" clip-path="url(#clip0_549_838)">
<path id="Vector" d="M14.6667 0H1.33333C0.980033 0.00104422 0.6415 0.141855 0.391678 0.391678C0.141855 0.6415 0.00104422 0.980033 0 1.33333V9.67958L4.66667 5.05729L7.33333 7.72396L11.5285 3.52854L9.33333 1.33333H14.6667V6.625C15.1497 6.8652 15.5981 7.16931 16 7.52917V1.33333C15.999 0.980033 15.8581 0.6415 15.6083 0.391678C15.3585 0.141855 15.02 0.00104422 14.6667 0ZM10.8281 6.11479C12.0977 5.86331 13.4145 6.02761 14.5833 6.58333L12.4715 4.47146L10.8281 6.11479ZM6.77438 9.05042L4.66667 6.94271L0 11.5592V14.6667C0.00104422 15.02 0.141855 15.3585 0.391678 15.6083C0.6415 15.8581 0.980033 15.999 1.33333 16H7.52833C6.6925 15.0655 6.17032 13.8927 6.03509 12.6463C5.89987 11.3999 6.1584 10.1424 6.77438 9.05042Z" fill="white"/>
<path id="Vector_2" d="M11 7C8.79094 7 7 8.79094 7 11C7 13.2091 8.79094 15 11 15C13.2091 15 15 13.2091 15 11C15 8.79094 13.2091 7 11 7ZM13.5 10.0867L13.4956 10.0911L12.5923 10.9959L10.4705 13.1209L8 10.6464L8.70594 9.93937L10.4706 11.7072L12.4973 9.67672L12.5 9.67406L13.2941 8.87859L13.4956 9.08047L13.5 9.08484L14 9.58578L13.5 10.0867Z" fill="white"/>
</g>
<defs>
<clipPath id="clip0_549_838">
<rect width="16" height="16" fill="white"/>
</clipPath>
</defs>
</svg>
