<svg width="16" height="16" viewBox="0 0 16 16" fill="none" xmlns="http://www.w3.org/2000/svg">
<g id="Frame" clip-path="url(#clip0_549_826)">
<path id="Vector" d="M15.8842 12.7122C16.1448 12.884 15.8842 13.1417 15.8842 13.1417L13.1918 15.8473C13.1918 15.8473 12.9312 16.1909 12.4536 15.8473C12.2364 15.6755 11.2811 14.9025 11.2811 14.9025C11.2811 14.9025 10.9771 14.6448 10.4994 14.6018H4.50663C4.50663 14.6018 4.24608 14.6877 4.02895 14.516C3.81182 14.3442 0.902292 11.9392 0.0772014 11.252C-0.0965018 11.0373 0.0772014 10.6937 0.0772014 10.6937C0.0772014 10.6937 0.641737 9.70594 2.16164 10.6937C3.07358 11.3379 4.50663 12.3257 4.50663 12.3257H7.9807L8.97949 11.6815C8.97949 11.6815 9.24005 11.5097 8.97949 11.5097C8.19783 11.4667 7.11218 11.3809 6.67793 11.295C6.15682 11.2091 5.85283 10.7796 5.85283 10.3501C5.85283 9.66299 6.67793 9.5771 6.67793 9.5771H11.889C11.889 9.5771 12.1062 9.5771 12.3233 9.74888C12.497 9.96361 15.6236 12.5404 15.8842 12.7122ZM10.7165 3.43573H11.4982C11.7587 3.43573 11.9324 3.69341 11.9324 3.95109V4.81002C11.9324 5.0677 11.7153 5.32538 11.4982 5.32538H10.7165C10.6297 5.49717 10.5428 5.79779 10.4125 6.05547L10.9771 6.57083C11.1508 6.74262 11.1508 7.0003 10.9771 7.17209L10.3691 7.77334C10.1954 7.94512 9.93486 7.94512 9.76116 7.77334L9.24005 7.21503C9.02292 7.34387 8.67551 7.42976 8.50181 7.51566V8.2887C8.50181 8.54638 8.24125 8.71816 7.9807 8.71816H7.11218C6.85163 8.71816 6.59107 8.50343 6.59107 8.2887V7.51566C6.41737 7.42976 6.11339 7.34387 5.85283 7.21503L5.33172 7.77334C5.15802 7.94512 4.89747 7.94512 4.72376 7.77334L4.07238 7.17209C3.89867 7.0003 3.89867 6.74262 4.07238 6.57083L4.63691 6.05547C4.50663 5.84074 4.41978 5.49717 4.33293 5.32538H3.55127C3.29071 5.32538 3.11701 5.0677 3.11701 4.81002V3.95109C3.11701 3.69341 3.33414 3.43573 3.55127 3.43573H4.33293C4.41978 3.26394 4.50663 2.96332 4.63691 2.70564L4.07238 2.19028C3.89867 2.01849 3.89867 1.71786 4.07238 1.58902L4.68034 0.987772C4.85404 0.815986 5.1146 0.815986 5.2883 0.987772L5.80941 1.54608C6.02654 1.41724 6.37394 1.33135 6.54765 1.24545V0.429466C6.54765 0.171787 6.8082 0 7.06876 0H7.93727C8.19783 0 8.45838 0.214733 8.45838 0.429466V1.20251C8.63209 1.2884 8.93607 1.37429 9.19662 1.50313L9.71773 0.944825C9.89144 0.773039 10.152 0.773039 10.3257 0.944825L10.9337 1.54608C11.1074 1.71786 11.1074 1.97554 10.9337 2.14733L10.4125 2.70564C10.5428 2.96332 10.6297 3.26394 10.7165 3.43573ZM5.54885 4.38056C5.54885 5.45422 6.4608 6.3561 7.54644 6.3561C8.63209 6.3561 9.54403 5.45422 9.54403 4.38056C9.54403 3.30689 8.63209 2.40501 7.54644 2.40501C6.41737 2.40501 5.54885 3.30689 5.54885 4.38056Z" fill="white"/>
</g>
<defs>
<clipPath id="clip0_549_826">
<rect width="16" height="16" fill="white"/>
</clipPath>
</defs>
</svg>
