<svg width="16" height="16" viewBox="0 0 16 16" fill="none" xmlns="http://www.w3.org/2000/svg">
<g id="Frame" clip-path="url(#clip0_549_845)">
<path id="Vector" opacity="0.6" d="M14.5543 15.9957C14.4059 15.9968 14.2609 15.9504 14.1407 15.8634L7.99389 11.4208L1.84709 15.8613C1.74304 15.9389 1.61943 15.986 1.49012 15.9973C1.36081 16.0087 1.23089 15.9838 1.11494 15.9254C1.00147 15.8661 0.906292 15.777 0.839614 15.6677C0.772936 15.5584 0.737273 15.433 0.73645 15.3049V0.7032C0.73645 0.5167 0.810537 0.337838 0.942413 0.205962C1.07429 0.0740869 1.25315 0 1.43965 0L14.5564 0C14.7429 0 14.9218 0.0740869 15.0536 0.205962C15.1855 0.337838 15.2596 0.5167 15.2596 0.7032V15.2925C15.2585 15.479 15.1838 15.6576 15.0517 15.7893C14.9196 15.921 14.7409 15.9952 14.5543 15.9957Z" fill="white"/>
<path id="Vector_2" d="M4.34143 3.49735C4.34198 3.65771 4.40606 3.81132 4.51965 3.92452C4.63324 4.03771 4.78706 4.10128 4.94742 4.10127H11.0487C11.203 4.09225 11.3481 4.02458 11.4542 3.91212C11.5602 3.79966 11.6193 3.65091 11.6193 3.49632C11.6193 3.34172 11.5602 3.19297 11.4542 3.08051C11.3481 2.96805 11.203 2.90039 11.0487 2.89136H4.94742C4.7867 2.89136 4.63257 2.9552 4.51892 3.06885C4.40528 3.18249 4.34143 3.33663 4.34143 3.49735ZM4.34143 7.38356C4.34143 7.54428 4.40528 7.69842 4.51892 7.81207C4.63257 7.92571 4.7867 7.98956 4.94742 7.98956H11.0487C11.203 7.98053 11.3481 7.91286 11.4542 7.8004C11.5602 7.68794 11.6193 7.53919 11.6193 7.3846C11.6193 7.23 11.5602 7.08126 11.4542 6.96879C11.3481 6.85633 11.203 6.78867 11.0487 6.77964H4.94742C4.78706 6.77964 4.63324 6.8432 4.51965 6.9564C4.40606 7.0696 4.34198 7.2232 4.34143 7.38356Z" fill="#152133"/>
</g>
<defs>
<clipPath id="clip0_549_845">
<rect width="16" height="16" fill="white"/>
</clipPath>
</defs>
</svg>
