<svg width="16" height="16" viewBox="0 0 16 16" fill="none" xmlns="http://www.w3.org/2000/svg">
<g id="Frame">
<path id="Vector" opacity="0.6" d="M13.0391 2.87934L15 3.9994V6.75634L11.6594 8.66523L11.6513 5.9851L9.57329 4.79624L13.0391 2.87934ZM11.5527 2.0305L8.12892 3.9706L4.58952 1.9489L8.0004 0L11.5527 2.0305ZM4.40442 13.9463L1 12.0006V8.34602L4.40927 10.2821L4.40442 13.9463ZM5.81889 14.7543L5.81727 11.0806L8.03193 12.3382L10.2304 11.0814L10.2134 14.7359L7.9996 16L5.8197 14.7543H5.81889ZM6.72253 4.76744L4.41493 6.0755L4.4117 8.64603L1 6.67553V4.0002L3.18879 2.74894L6.72092 4.76744H6.72253ZM8.14993 5.58348L10.2514 6.78434L10.2385 9.47647L8.03193 10.7381L5.81647 9.45807L5.81485 6.87554L8.15074 5.58348H8.14993ZM15 8.35642V12.0006L11.674 13.9007L11.6635 10.2621L15 8.35642Z" fill="white"/>
</g>
</svg>
