<svg width="72" height="28" viewBox="0 0 72 28" fill="none" xmlns="http://www.w3.org/2000/svg">
<g filter="url(#filter0_i_8_1645)">
<rect width="72" height="28" rx="4" fill="white"/>
</g>
<rect x="0.5" y="0.5" width="71" height="27" rx="3.5" stroke="#D7DEE4" stroke-opacity="0.56"/>
<path d="M38.762 11.874H43.578C43.214 12.854 42.738 13.75 42.15 14.576C41.366 13.89 40.512 13.232 39.616 12.602L39.028 13.316C39.924 13.946 40.778 14.604 41.562 15.304C40.722 16.256 39.686 17.068 38.468 17.74L39.07 18.538C40.33 17.838 41.394 16.97 42.276 15.962C43.088 16.732 43.83 17.544 44.502 18.398L45.16 17.6C44.46 16.774 43.704 15.976 42.864 15.22C43.606 14.198 44.18 13.036 44.586 11.72V10.992H38.762V9.466C40.974 9.396 42.962 9.158 44.74 8.752L44.18 7.744C42.29 8.248 40.162 8.528 37.782 8.57V12.574C37.726 14.618 37.292 16.228 36.452 17.376L37.194 18.132C38.174 16.76 38.692 14.898 38.762 12.574V11.874ZM32.784 11.062V11.986H35.038C34.534 12.77 33.946 13.568 33.246 14.352V15.122H35.388C35.192 16.032 34.912 16.844 34.576 17.572C33.974 17.74 33.344 18.454 32.7 19.714L33.428 20.386C34.058 19.126 34.548 18.51 34.884 18.51C34.996 18.51 35.094 18.552 35.206 18.65C35.64 19.14 36.13 19.504 36.676 19.742C37.138 19.952 37.81 20.078 38.706 20.106C39.462 20.134 40.33 20.148 41.31 20.148H45.188L45.412 19.182C43.676 19.224 42.262 19.252 41.184 19.252H38.748C38.006 19.224 37.432 19.126 37.012 18.944C36.578 18.734 36.158 18.426 35.766 18.006C35.668 17.908 35.57 17.824 35.486 17.768C35.836 17.012 36.116 16.074 36.34 14.94V14.268H34.436C35.08 13.484 35.654 12.686 36.158 11.86V11.062H32.784ZM33.932 7.674L33.246 8.318C34.142 9.046 34.842 9.732 35.346 10.362L36.018 9.704C35.444 9.032 34.744 8.346 33.932 7.674ZM50.312 11.468V16.452H55.716V11.468H50.312ZM54.764 15.598H51.25V12.336H54.764V15.598ZM58.614 8.402H47.386V20.176H48.366V19.574H57.634V20.176H58.614V8.402ZM48.366 18.678V9.298H57.634V18.678H48.366Z" fill="#8296AD"/>
<path d="M18.125 6.875C14.7453 6.875 12 9.62031 12 13C12 16.3797 14.7453 19.125 18.125 19.125C21.5047 19.125 24.25 16.3797 24.25 13C24.25 9.62031 21.5047 6.875 18.125 6.875ZM18.125 18.25C15.2266 18.25 12.875 15.8984 12.875 13C12.875 10.1016 15.2266 7.75 18.125 7.75C21.0234 7.75 23.375 10.1016 23.375 13C23.375 15.8984 21.0234 18.25 18.125 18.25ZM20.2906 9.90469L17.1953 13L20.2906 16.0953L19.6781 16.7188L15.9594 13L19.6781 9.28125L20.2906 9.90469Z" fill="#8296AD"/>
<defs>
<filter id="filter0_i_8_1645" x="0" y="0" width="72" height="30" filterUnits="userSpaceOnUse" color-interpolation-filters="sRGB">
<feFlood flood-opacity="0" result="BackgroundImageFix"/>
<feBlend mode="normal" in="SourceGraphic" in2="BackgroundImageFix" result="shape"/>
<feColorMatrix in="SourceAlpha" type="matrix" values="0 0 0 0 0 0 0 0 0 0 0 0 0 0 0 0 0 0 127 0" result="hardAlpha"/>
<feOffset dy="2"/>
<feGaussianBlur stdDeviation="3"/>
<feComposite in2="hardAlpha" operator="arithmetic" k2="-1" k3="1"/>
<feColorMatrix type="matrix" values="0 0 0 0 0.00826389 0 0 0 0 0.0483084 0 0 0 0 0.0708333 0 0 0 0.25 0"/>
<feBlend mode="normal" in2="shape" result="effect1_innerShadow_8_1645"/>
</filter>
</defs>
</svg>
