<svg width="32" height="32" viewBox="0 0 32 32" fill="none" xmlns="http://www.w3.org/2000/svg">
<g id="Arco">
<g id="&#231;&#188;&#150;&#231;&#187;&#132;&#229;&#164;&#135;&#228;&#187;&#189; 2 1" clip-path="url(#clip0_82_13540)">
<g id="&#233;&#161;&#181;&#233;&#157;&#162;1">
<g id="&#231;&#148;&#187;&#230;&#157;&#191;">
<g id="&#231;&#188;&#150;&#231;&#187;&#132; 6&#229;&#164;&#135;&#228;&#187;&#189;">
<g id="&#231;&#188;&#150;&#231;&#187;&#132; 5&#229;&#164;&#135;&#228;&#187;&#189;">
<g id="&#231;&#188;&#150;&#231;&#187;&#132; 3">
<g id="&#231;&#188;&#150;&#231;&#187;&#132;&#229;&#164;&#135;&#228;&#187;&#189; 2">
<path id="&#231;&#159;&#169;&#229;&#189;&#162;&#229;&#164;&#135;&#228;&#187;&#189; 3" fill-rule="evenodd" clip-rule="evenodd" d="M4.87778 16.4796L12.2501 8.9304C14.2165 6.91675 17.443 6.8785 19.4566 8.84494C19.4855 8.87309 19.5139 8.90158 19.5421 8.9304L19.6223 9.01255C21.6052 11.043 21.6052 14.2848 19.6223 16.3153L12.2501 23.8645C10.2836 25.8781 7.05711 25.9164 5.04347 23.9499C5.01465 23.9218 4.98616 23.8933 4.95802 23.8645L4.87778 23.7823C2.89492 21.7519 2.89492 18.5101 4.87778 16.4796Z" fill="#46B39D"/>
<path id="&#231;&#159;&#169;&#229;&#189;&#162;&#229;&#164;&#135;&#228;&#187;&#189; 7" fill-rule="evenodd" clip-rule="evenodd" d="M19.5481 8.93047L26.8402 16.3975C28.8676 18.4737 28.8676 21.7884 26.8402 23.8646C24.8737 25.8782 21.6472 25.9165 19.6336 23.95C19.6048 23.9219 19.5763 23.8934 19.5481 23.8646L12.2561 16.3975C10.2286 14.3214 10.2286 11.0066 12.2561 8.93047C14.2225 6.91683 17.449 6.87857 19.4627 8.84501C19.4915 8.87316 19.52 8.90165 19.5481 8.93047Z" fill="#487ED7"/>
<path id="&#231;&#159;&#169;&#229;&#189;&#162;" fill-rule="evenodd" clip-rule="evenodd" d="M19.6324 9.02175L23.1855 12.6601L15.8934 20.1271L8.6014 12.6601L12.1544 9.02175C14.171 6.95676 17.4798 6.91752 19.5448 8.93412C19.5744 8.96298 19.6036 8.99219 19.6324 9.02175Z" fill="#6195F8"/>
</g>
</g>
</g>
</g>
</g>
</g>
</g>
</g>
<defs>
<clipPath id="clip0_82_13540">
<rect width="26" height="19" fill="white" transform="translate(3 6.5)"/>
</clipPath>
</defs>
</svg>
