<svg width="24" height="24" viewBox="0 0 24 24" fill="none" xmlns="http://www.w3.org/2000/svg">
<path d="M24 0H0V24H24V0Z" fill="white" fill-opacity="0.01"/>
<path d="M12 22.5C17.799 22.5 22.5 17.799 22.5 12C22.5 6.20101 17.799 1.5 12 1.5C6.20101 1.5 1.5 6.20101 1.5 12C1.5 17.799 6.20101 22.5 12 22.5Z" stroke="#1A79FF" stroke-linejoin="round"/>
<path opacity="0.1" d="M12 22.5C17.799 22.5 22.5 17.799 22.5 12C22.5 12 17.799 15.5 12 15.5C6.20101 15.5 1.5 12 1.5 12C1.5 17.799 6.20101 22.5 12 22.5Z" fill="#1A79FF"/>
<line x1="11.75" y1="8.75" x2="11.75" y2="15.25" stroke="#1A79FF" stroke-linecap="round"/>
<path d="M9 12.75L12 15.75L15 12.75" stroke="#1A79FF" stroke-linecap="round" stroke-linejoin="round"/>
</svg>
