<svg width="314" height="92" viewBox="0 0 314 92" fill="none" xmlns="http://www.w3.org/2000/svg">
<rect width="314" height="92" fill="white"/>
<path opacity="0.1" d="M45.3556 68C28.2102 68 9 84.6957 0 84.6957V92H314V71.4783C304.862 75.8841 281.503 84.6957 261.168 84.6957C235.749 84.6957 238.241 71.4783 197.371 71.4783C156.502 71.4783 145.038 84.6957 117.625 84.6957C90.2127 84.6957 66.7873 68 45.3556 68Z" fill="#1A79FF"/>
<path opacity="0.08" d="M54.8254 81.9577C36.0851 81.9577 10.4667 78.5023 0 76.7746V92H314V75.1549C310.345 73.1033 297.453 69 275.124 69C247.213 69 217.308 81.9577 186.905 81.9577C156.502 81.9577 145.537 75.1549 121.114 75.1549C96.6921 75.1549 78.2508 81.9577 54.8254 81.9577Z" fill="#1A79FF"/>
</svg>
