<svg width="24" height="24" viewBox="0 0 24 24" fill="none" xmlns="http://www.w3.org/2000/svg">
<path d="M24 0H0V24H24V0Z" fill="white" fill-opacity="0.01"/>
<path d="M12 22.5C16.9706 22.5 21 18.4706 21 13.5C21 8.52944 16.9706 4.5 12 4.5C7.02944 4.5 3 8.52944 3 13.5C3 18.4706 7.02944 22.5 12 22.5Z" stroke="#1A79FF" stroke-width="1.25" stroke-linejoin="round"/>
<path opacity="0.1" d="M12 22.5C16.9706 22.5 21 18.4706 21 13.5C21 13.5 17.9706 15.5 13 15.5C8.02944 15.5 3 13.5 3 13.5C3 18.4706 7.02944 22.5 12 22.5Z" fill="#1A79FF" stroke="#1A79FF" stroke-width="1.25" stroke-linejoin="round"/>
<path d="M9 2H15" stroke="#1A79FF" stroke-width="1.25" stroke-linecap="round" stroke-linejoin="round"/>
<path d="M12 9.5V13.5" stroke="#1A79FF" stroke-width="1.25" stroke-linecap="round" stroke-linejoin="round"/>
<path d="M16 13.5H12" stroke="#1A79FF" stroke-width="1.25" stroke-linecap="round" stroke-linejoin="round"/>
<path d="M12 2V4" stroke="#1A79FF" stroke-width="1.25" stroke-linecap="round" stroke-linejoin="round"/>
</svg>
