<svg width="16" height="13" viewBox="0 0 16 13" fill="none" xmlns="http://www.w3.org/2000/svg">
<path d="M16 13V0H0V13H16ZM15 1V4H1V1H15ZM5 5V8H1V5H5ZM5 9V12H1V9H5ZM6 9H10V12H6V9ZM10 8H6V5H10V8ZM11 9H15V12H11V9ZM15 8H11V5H15V8Z" fill="white"/>
<path d="M16 13V0H0V13H16ZM15 1V4H1V1H15ZM5 5V8H1V5H5ZM5 9V12H1V9H5ZM6 9H10V12H6V9ZM10 8H6V5H10V8ZM11 9H15V12H11V9ZM15 8H11V5H15V8Z" fill="white"/>
<path d="M16 13V0H0V13H16ZM15 1V4H1V1H15ZM5 5V8H1V5H5ZM5 9V12H1V9H5ZM6 9H10V12H6V9ZM10 8H6V5H10V8ZM11 9H15V12H11V9ZM15 8H11V5H15V8Z" fill="white"/>
<path d="M16 13V0H0V13H16ZM15 1V4H1V1H15ZM5 5V8H1V5H5ZM5 9V12H1V9H5ZM6 9H10V12H6V9ZM10 8H6V5H10V8ZM11 9H15V12H11V9ZM15 8H11V5H15V8Z" fill="white"/>
<path d="M16 13V0H0V13H16ZM15 1V4H1V1H15ZM5 5V8H1V5H5ZM5 9V12H1V9H5ZM6 9H10V12H6V9ZM10 8H6V5H10V8ZM11 9H15V12H11V9ZM15 8H11V5H15V8Z" fill="white"/>
</svg>
