<svg width="16" height="16" viewBox="0 0 16 16" fill="none" xmlns="http://www.w3.org/2000/svg">
<g id="Frame">
<path id="Vector" d="M3 4.50938V3.55625C3 3.26875 3.23281 3.0375 3.51875 3.0375H6.49688V2.51875C6.49688 2.23125 6.72969 2 7.01562 2H9.37031C9.65781 2 9.88906 2.23281 9.88906 2.51875V3.0375H12.8672C13.1547 3.0375 13.3859 3.27031 13.3859 3.55625V4.50938H3ZM11.9359 13.4453C11.9359 13.7328 11.7031 13.9641 11.4172 13.9641H4.97344C4.68594 13.9641 4.45469 13.7312 4.45469 13.4453L3.41563 4.87344H12.975L11.9359 13.4453ZM6.74063 6.84688C6.74063 6.55938 6.50781 6.32812 6.22187 6.32812C5.93437 6.32812 5.70313 6.56094 5.70313 6.84688V12.0422C5.70313 12.3297 5.93594 12.5609 6.22187 12.5609C6.50937 12.5609 6.74063 12.3281 6.74063 12.0422V6.84688ZM8.67969 6.84688C8.67969 6.55938 8.44687 6.32812 8.16094 6.32812C7.87344 6.32812 7.64219 6.56094 7.64219 6.84688V12.0422C7.64219 12.3297 7.875 12.5609 8.16094 12.5609C8.44844 12.5609 8.67969 12.3281 8.67969 12.0422V6.84688ZM10.6547 6.84688C10.6547 6.55938 10.4219 6.32812 10.1359 6.32812C9.84844 6.32812 9.61719 6.56094 9.61719 6.84688V12.0422C9.61719 12.3297 9.85 12.5609 10.1359 12.5609C10.4234 12.5609 10.6547 12.3281 10.6547 12.0422V6.84688Z" fill="#1D2129"/>
</g>
</svg>
