<svg width="16" height="16" viewBox="0 0 16 16" fill="none" xmlns="http://www.w3.org/2000/svg">
<g id="Frame">
<path id="Vector" d="M3.22004 1.08989C8.51504 3.40789 7.31004 7.56789 7.31004 7.56789H5.69004L8.51204 9.42689L11.248 7.56789H9.71504C9.71504 7.56789 10.389 1.75389 3.87104 1.00489C3.70804 0.985894 3.07004 1.02389 3.22004 1.08989Z" fill="#3D3D40"/>
<path id="Vector_2" d="M12.21 10.0108C12.149 9.82578 11.898 9.67578 11.648 9.67578H8.73697L8.51497 9.82678L8.28597 9.67578H2.57497C2.32597 9.67578 2.17197 9.82578 2.23097 10.0108L3.74597 14.6658C3.80597 14.8508 4.05697 14.9998 4.30697 14.9998H13.381C13.632 14.9998 13.785 14.8508 13.725 14.6658L12.21 10.0108Z" fill="#3D3D40"/>
<path id="Vector_3" d="M13.0811 6.78012H10.7041C10.4521 6.76512 10.2521 6.95712 10.0961 7.23512H12.3331L9.40405 9.22412H11.6481C11.8641 9.22512 12.0601 9.28512 12.2321 9.38612C12.4011 9.48912 12.5591 9.63512 12.6401 9.87112L13.7821 13.3791V7.79912C13.7821 7.79912 13.7361 6.78012 13.0811 6.78012Z" fill="#3D3D40"/>
<path id="Vector_4" d="M3.80298 8.70884V9.22284H7.59798L6.12998 8.25684H4.25598C4.00498 8.25684 3.80298 8.45984 3.80298 8.70884Z" fill="#3D3D40"/>
</g>
</svg>
