<svg width="16" height="16" viewBox="0 0 16 16" fill="none" xmlns="http://www.w3.org/2000/svg">
<g id="Group 3578">
<g id="Frame">
<path id="Vector" d="M8.23321 1.72693C4.91291 1.72693 2.22128 4.41856 2.22128 7.73885C2.22128 11.0591 4.91291 13.7508 8.23321 13.7508C11.5535 13.7508 14.2451 11.0591 14.2451 7.73885C14.2451 4.41856 11.5535 1.72693 8.23321 1.72693ZM12.2863 8.02263C12.2863 8.1904 12.1502 8.32642 11.9825 8.32642H8.82078V11.4881C8.82078 11.6559 8.68476 11.7919 8.51698 11.7919H7.94943C7.78166 11.7919 7.64564 11.6559 7.64564 11.4881L7.64564 8.32642H4.48394C4.31617 8.32642 4.18015 8.1904 4.18015 8.02263V7.45508C4.18015 7.2873 4.31617 7.15128 4.48394 7.15128H7.64562V3.9896C7.64562 3.82183 7.78164 3.68581 7.94942 3.68581H8.51697C8.68474 3.68581 8.82076 3.82183 8.82076 3.9896V7.15128H11.9824C12.1502 7.15128 12.2862 7.2873 12.2862 7.45508L12.2863 8.02263Z" fill="white"/>
</g>
</g>
</svg>
