<svg width="16" height="16" viewBox="0 0 16 16" fill="none" xmlns="http://www.w3.org/2000/svg">
<g id="Frame">
<path id="Vector" d="M11.736 4.906V6.517L13.58 3.717L11.736 1V2.529C11.736 2.529 5.98599 1.86 5.23499 8.306H5.63099C7.96599 3.813 11.736 4.906 11.736 4.906Z" fill="#3D3D40"/>
<path id="Vector_2" d="M12.173 10.0409C12.118 9.86387 11.86 9.71387 11.613 9.71387H2.62601C2.38001 9.71387 2.21601 9.86387 2.28401 10.0409L3.78701 14.6579C3.84201 14.8499 4.08701 14.9999 4.33301 14.9999H13.333C13.579 14.9999 13.729 14.8499 13.675 14.6579L12.173 10.0409Z" fill="#3D3D40"/>
<path id="Vector_3" d="M13.033 6.84585H10.684C10.164 6.81885 9.86504 7.65185 9.71404 8.30685H5.63104C5.52204 8.51185 5.42604 8.72985 5.31704 8.96285C5.24904 9.11185 5.22104 8.48385 5.23504 8.31985V8.30685H4.29204C4.04604 8.30685 3.84204 8.51185 3.84204 8.75785V9.26285H11.613C11.832 9.26285 12.022 9.33085 12.186 9.42685C12.364 9.53585 12.514 9.67285 12.596 9.90585L13.73 13.3879V7.85585C13.73 7.85585 13.689 6.84585 13.033 6.84585Z" fill="#3D3D40"/>
</g>
</svg>
