<svg width="16" height="16" viewBox="0 0 16 16" fill="none" xmlns="http://www.w3.org/2000/svg">
<g id="Group 148">
<g id="Frame">
<path id="Vector" d="M3.49534 9.03764C4.26096 7.53139 5.77502 6.49389 7.53596 6.49389V7.06264C7.53596 7.0767 7.53596 7.09076 7.53752 7.10483V7.10639C7.57034 7.82045 8.40002 8.21264 8.97502 7.76733L11.7781 5.60014C12.2406 5.24233 12.2406 4.54545 11.7781 4.18764L8.97346 2.02514C8.39846 1.58139 7.56877 1.97358 7.53596 2.68608V2.68764C7.53596 2.7017 7.5344 2.71576 7.5344 2.72983V3.32983C7.21252 3.33139 6.89846 3.36889 6.59534 3.43608C4.52971 3.89701 2.97815 5.79389 2.97815 8.07514C2.97815 8.4517 3.02034 8.80014 3.09377 9.1392C3.13127 9.3142 3.17815 9.48608 3.23127 9.65795C3.30471 9.44389 3.39377 9.23764 3.49534 9.03764Z" fill="#3D3D40"/>
<path id="Vector_2" d="M12.986 8.94541C12.9891 8.92666 12.9938 8.90791 12.9969 8.88916C13.0078 8.83291 13.0172 8.77666 13.0266 8.72041C13.0641 8.47353 13.0844 8.22041 13.0844 7.9626C13.0844 7.84854 13.0797 7.73604 13.0735 7.62666C13.0469 7.23447 12.975 6.86729 12.8688 6.50322C12.8563 6.4626 12.8453 6.42197 12.8313 6.38135C12.5156 7.29541 11.9422 8.08291 11.1985 8.64541C11.1625 8.67197 11.1266 8.69854 11.0891 8.7251C11.036 8.7626 10.9813 8.8001 10.9266 8.83447C10.9031 8.8501 10.8797 8.86416 10.8563 8.87979C10.8156 8.90479 10.7735 8.92978 10.7328 8.95478C10.6657 8.99385 10.5969 9.03135 10.5266 9.06729C10.525 9.06885 10.5219 9.06885 10.5203 9.07041C9.91877 9.3751 9.24378 9.54697 8.52659 9.54697V8.97822C8.52659 8.96416 8.52659 8.9501 8.52502 8.93604V8.93291C8.49065 8.21885 7.66252 7.82666 7.08752 8.27197L4.28596 10.4345C3.82346 10.7923 3.82346 11.4892 4.28596 11.847L7.08909 14.0126C7.66409 14.4563 8.49377 14.0642 8.52659 13.3517V13.3485C8.52659 13.3345 8.52815 13.3204 8.52815 13.3063V12.7063C10.6016 12.6923 12.35 11.2563 12.9031 9.2876C12.9094 9.26416 12.9156 9.23916 12.9219 9.21572C12.9453 9.12822 12.9672 9.0376 12.986 8.94541Z" fill="#3D3D40"/>
</g>
</g>
</svg>
